<svg width="261" height="325" viewBox="0 0 261 325" fill="none" xmlns="http://www.w3.org/2000/svg">
<path d="M0.833008 32.8333C0.833008 24.2359 4.24832 15.9906 10.3276 9.91125C16.4069 3.83194 24.6522 0.416626 33.2497 0.416626H162.916C167.215 0.417544 171.337 2.1258 174.376 5.16567L255.417 86.2073C258.457 89.2463 260.165 93.3683 260.166 97.6666V292.167C260.166 300.764 256.751 309.009 250.672 315.089C244.592 321.168 236.347 324.583 227.75 324.583H33.2497C24.6522 324.583 16.4069 321.168 10.3276 315.089C4.24832 309.009 0.833008 300.764 0.833008 292.167V32.8333ZM221.039 97.6666L162.916 39.5435V97.6666H221.039ZM130.5 32.8333H33.2497V292.167H227.75V130.083H146.708C142.409 130.083 138.287 128.376 135.247 125.336C132.207 122.296 130.5 118.174 130.5 113.875V32.8333Z" fill="#E7E8F3"/>
</svg>
