<svg width="359" height="83" viewBox="0 0 359 83" fill="none" xmlns="http://www.w3.org/2000/svg">
<circle cx="41.5" cy="43.5" r="38.5" fill="#191970"/>
<g filter="url(#filter0_d_526_1050)">
<path d="M43.6902 62.912H37.2422C36.3755 62.912 35.7515 62.7213 35.3702 62.34C35.0235 61.9587 34.8502 61.352 34.8502 60.52V52.304H26.8942C26.0622 52.304 25.4555 52.1307 25.0742 51.784C24.6928 51.4027 24.5022 50.7787 24.5022 49.912V43.984C24.5022 43.5333 24.5542 43.152 24.6582 42.84C24.7968 42.528 24.9875 42.268 25.2302 42.06L31.9382 36.392C32.1115 36.2533 32.3368 36.1493 32.6142 36.08C32.9262 35.976 33.2555 35.924 33.6022 35.924H34.8502V33.376C34.8502 32.9253 34.9022 32.544 35.0062 32.232C35.1102 31.92 35.2662 31.6773 35.4742 31.504L35.5262 31.452L42.2862 25.784C42.4595 25.6453 42.6848 25.5413 42.9622 25.472C43.2395 25.368 43.5688 25.316 43.9502 25.316H50.3982C51.2302 25.316 51.8368 25.5067 52.2182 25.888C52.5995 26.2693 52.7902 26.876 52.7902 27.708V35.924H60.7462C61.5782 35.924 62.1848 36.1147 62.5662 36.496C62.9475 36.8427 63.1382 37.4493 63.1382 38.316V44.244C63.1382 44.6947 63.0688 45.076 62.9302 45.388C62.8262 45.7 62.6528 45.96 62.4102 46.168L55.7022 51.836C55.4942 51.9747 55.2515 52.096 54.9742 52.2C54.6968 52.2693 54.3848 52.304 54.0382 52.304H52.7902V54.852C52.7902 55.3027 52.7208 55.684 52.5822 55.996C52.4782 56.308 52.3048 56.568 52.0622 56.776L45.3542 62.444C45.1462 62.5827 44.9035 62.6867 44.6262 62.756C44.3488 62.86 44.0368 62.912 43.6902 62.912ZM52.2702 54.852V46.116H60.7462C61.4048 46.116 61.8728 45.9773 62.1502 45.7C62.4622 45.388 62.6182 44.9027 62.6182 44.244V38.316C62.6182 37.6573 62.4622 37.1893 62.1502 36.912C61.8728 36.6 61.4048 36.444 60.7462 36.444H52.2702V27.708C52.2702 27.0493 52.1142 26.5813 51.8022 26.304C51.5248 25.992 51.0568 25.836 50.3982 25.836H43.9502C43.2915 25.836 42.8062 25.992 42.4942 26.304C42.2168 26.5813 42.0782 27.0493 42.0782 27.708V36.444H33.6022C32.9435 36.444 32.4582 36.6 32.1462 36.912C31.8688 37.1893 31.7302 37.6573 31.7302 38.316V44.244C31.7302 44.9027 31.8688 45.388 32.1462 45.7C32.4582 45.9773 32.9435 46.116 33.6022 46.116H42.0782V54.852C42.0782 55.5107 42.2168 55.996 42.4942 56.308C42.8062 56.5853 43.2915 56.724 43.9502 56.724H50.3982C51.0568 56.724 51.5248 56.5853 51.8022 56.308C52.1142 55.996 52.2702 55.5107 52.2702 54.852ZM46.9142 52.044V41.54H36.4102V41.02H46.9142V30.516H47.4342V41.02H57.9382V41.54H47.4342V52.044H46.9142Z" fill="#BDFF00"/>
</g>
<path d="M109.594 45.9453C109.594 46.5859 109.031 46.9062 107.906 46.9062C106.781 46.9062 106.219 46.6953 106.219 46.2734V42.7344H98.7422V55.6953H103.781C104.188 55.6953 104.391 56.1719 104.391 57.125C104.391 57.875 104.273 58.375 104.039 58.625C103.805 58.875 103.602 59 103.43 59H90C89.5781 59 89.3672 58.5391 89.3672 57.6172C89.3828 56.8203 89.5781 56.2344 89.9531 55.8594C90.0781 55.7344 90.3281 55.6719 90.7031 55.6719H90.7734C90.8359 55.6875 90.9062 55.6953 90.9844 55.6953C91.3438 55.6953 91.7109 55.6719 92.0859 55.625C92.5391 55.5938 92.8906 55.5391 93.1406 55.4609C93.5781 55.3203 93.7969 55.0625 93.7969 54.6875V27.3594C93.7969 27.1406 93.7031 27.0312 93.5156 27.0312H89.6719C89.2344 27.0312 88.9375 26.625 88.7812 25.8125C88.75 25.5938 88.7266 25.3906 88.7109 25.2031C88.7109 24.2188 88.9141 23.7266 89.3203 23.7266H115.102V30.5469C115.102 31.0781 114.555 31.3438 113.461 31.3438C112.352 31.3438 111.797 31.1719 111.797 30.8281C111.797 29.5156 111.625 28.6719 111.281 28.2969C110.672 27.6562 109.562 27.3359 107.953 27.3359H98.7422V39.125H104.695C105.414 39.125 105.836 38.9531 105.961 38.6094C106.164 38.1094 106.266 37.1016 106.266 35.5859C106.266 35.2266 106.734 35.0469 107.672 35.0469C108.484 35.0469 109.008 35.1562 109.242 35.375C109.477 35.5938 109.594 35.7734 109.594 35.9141V45.9453ZM128.433 29.1875C126.98 29.1875 125.987 28.5469 125.456 27.2656C125.3 26.875 125.222 26.4453 125.222 25.9766C125.222 24.4922 125.87 23.4844 127.167 22.9531C127.558 22.7969 127.98 22.7188 128.433 22.7188C129.339 22.7188 130.097 23.0312 130.706 23.6562C131.331 24.2656 131.644 25.0391 131.644 25.9766C131.644 26.8984 131.331 27.6719 130.706 28.2969C130.112 28.8906 129.355 29.1875 128.433 29.1875ZM122.855 59C122.448 59 122.245 58.5234 122.245 57.5703C122.245 56.8203 122.362 56.3203 122.597 56.0703C122.831 55.8203 123.034 55.6953 123.206 55.6953H123.441C125.269 55.6953 126.3 55.5156 126.534 55.1562C126.612 55.0469 126.652 54.9141 126.652 54.7578V39.1484H122.527C122.073 39.1328 121.769 38.7344 121.612 37.9531C121.581 37.7344 121.566 37.5078 121.566 37.2734C121.566 36.5547 121.777 36.1172 122.198 35.9609C122.62 35.7891 123.175 35.6484 123.862 35.5391C124.55 35.4297 125.269 35.3438 126.019 35.2812C127.456 35.1562 128.839 35.0859 130.167 35.0703H130.191C130.847 35.0703 131.191 35.7344 131.222 37.0625V55.6953H135.159C135.566 55.6953 135.769 56.1719 135.769 57.125C135.769 57.875 135.652 58.375 135.417 58.625C135.183 58.875 134.98 59 134.808 59H122.855ZM167.381 55.6953C167.787 55.6953 167.991 56.1719 167.991 57.125C167.991 57.8281 167.873 58.3125 167.639 58.5781C167.405 58.8438 167.225 58.9844 167.1 59C166.991 59 166.772 59.0156 166.444 59.0469C166.131 59.0938 165.725 59.1406 165.225 59.1875C163.866 59.3125 162.811 59.375 162.061 59.375C161.295 59.375 160.803 59.3438 160.584 59.2812C160.366 59.2344 160.178 59.1406 160.022 59C159.725 58.75 159.428 58.2109 159.131 57.3828C157.225 58.7734 154.983 59.4688 152.405 59.4688C149.373 59.4688 147.037 58.3281 145.397 56.0469C143.819 53.8594 143.03 50.8438 143.03 47V46.9297C143.03 43.1797 144.194 40.2188 146.522 38.0469C148.647 36.0625 151.389 35.0703 154.748 35.0703C156.327 35.0703 157.702 35.2266 158.873 35.5391V25.9766H154.748C154.295 25.9766 153.991 25.5938 153.834 24.8281C153.803 24.6094 153.787 24.375 153.787 24.125C153.787 23.375 153.998 22.9219 154.42 22.7656C154.842 22.6094 155.397 22.4766 156.084 22.3672C156.772 22.2578 157.491 22.1719 158.241 22.1094C159.678 21.9844 161.061 21.9141 162.389 21.8984H162.412C163.069 21.8984 163.412 22.5625 163.444 23.8906V55.6953H167.381ZM153.037 55.8594C155.053 55.8594 156.998 55.0781 158.873 53.5156V40.2031C157.577 39.1875 156.108 38.6797 154.467 38.6797C151.545 38.6797 149.537 40.0938 148.444 42.9219C148.037 44 147.834 45.3594 147.834 47C147.834 48.6406 147.998 50.0234 148.327 51.1484C148.655 52.2578 149.069 53.1641 149.569 53.8672C150.537 55.1953 151.694 55.8594 153.037 55.8594ZM174.689 46.9531C174.689 45.0156 175.009 43.2969 175.65 41.7969C176.275 40.3281 177.119 39.0938 178.181 38.0938C180.338 36.0938 183.002 35.0859 186.173 35.0703H186.244C189.15 35.0703 191.392 35.9844 192.97 37.8125C194.548 39.625 195.338 42.2422 195.338 45.6641C195.338 46.3984 195.002 47.0312 194.33 47.5625C193.673 48.0781 192.845 48.3359 191.845 48.3359H179.494C179.775 51.9922 181.048 54.3359 183.314 55.3672C184.033 55.6953 184.791 55.8594 185.588 55.8594C186.384 55.8594 187.095 55.7734 187.72 55.6016C188.345 55.4141 188.947 55.1875 189.525 54.9219C190.103 54.6406 190.666 54.3281 191.213 53.9844C192.353 53.2656 193.025 52.9062 193.228 52.9062C193.416 52.9219 193.619 53.0156 193.838 53.1875C194.025 53.375 194.213 53.5938 194.4 53.8438C194.806 54.4375 195.017 54.9375 195.033 55.3438V55.3906C195.033 55.7656 194.947 56.0156 194.775 56.1406C191.916 58.3594 188.666 59.4688 185.025 59.4688C181.759 59.4688 179.213 58.3281 177.384 56.0469C175.588 53.8281 174.689 50.7969 174.689 46.9531ZM190.533 44.8203V44.7266C190.533 41.6328 189.634 39.7266 187.838 39.0078C187.275 38.7891 186.65 38.6797 185.963 38.6797C185.275 38.6797 184.556 38.8047 183.806 39.0547C183.056 39.3203 182.369 39.7031 181.744 40.2031C180.353 41.3438 179.603 42.8828 179.494 44.8203H190.533ZM203.137 59C202.731 59 202.528 58.5234 202.528 57.5703C202.528 56.8203 202.645 56.3203 202.88 56.0703C203.114 55.8203 203.317 55.6953 203.489 55.6953H203.723C205.536 55.6953 206.559 55.5156 206.794 55.1562C206.887 55.0312 206.934 54.875 206.934 54.6875V25.9766H202.809C202.372 25.9609 202.075 25.5625 201.919 24.7812C201.887 24.5625 201.864 24.3359 201.848 24.1016C201.848 23.3828 202.059 22.9453 202.481 22.7891C202.903 22.6172 203.458 22.4766 204.145 22.3672C204.848 22.2578 205.575 22.1719 206.325 22.1094C207.762 21.9844 209.137 21.9141 210.45 21.8984C211.106 21.8984 211.45 22.5625 211.481 23.8906C211.481 24.2812 211.489 24.6875 211.505 25.1094V55.6953H215.442C215.848 55.6953 216.052 56.1719 216.052 57.125C216.052 57.875 215.934 58.375 215.7 58.625C215.466 58.875 215.262 59 215.091 59H203.137ZM229.055 29.1875C227.602 29.1875 226.609 28.5469 226.078 27.2656C225.922 26.875 225.844 26.4453 225.844 25.9766C225.844 24.4922 226.492 23.4844 227.789 22.9531C228.18 22.7969 228.602 22.7188 229.055 22.7188C229.961 22.7188 230.719 23.0312 231.328 23.6562C231.953 24.2656 232.266 25.0391 232.266 25.9766C232.266 26.8984 231.953 27.6719 231.328 28.2969C230.734 28.8906 229.977 29.1875 229.055 29.1875ZM223.477 59C223.07 59 222.867 58.5234 222.867 57.5703C222.867 56.8203 222.984 56.3203 223.219 56.0703C223.453 55.8203 223.656 55.6953 223.828 55.6953H224.062C225.891 55.6953 226.922 55.5156 227.156 55.1562C227.234 55.0469 227.273 54.9141 227.273 54.7578V39.1484H223.148C222.695 39.1328 222.391 38.7344 222.234 37.9531C222.203 37.7344 222.188 37.5078 222.188 37.2734C222.188 36.5547 222.398 36.1172 222.82 35.9609C223.242 35.7891 223.797 35.6484 224.484 35.5391C225.172 35.4297 225.891 35.3438 226.641 35.2812C228.078 35.1562 229.461 35.0859 230.789 35.0703H230.812C231.469 35.0703 231.812 35.7344 231.844 37.0625V55.6953H235.781C236.188 55.6953 236.391 56.1719 236.391 57.125C236.391 57.875 236.273 58.375 236.039 58.625C235.805 58.875 235.602 59 235.43 59H223.477ZM268.003 55.6953C268.409 55.6953 268.613 56.1719 268.613 57.125C268.613 57.8281 268.495 58.3125 268.261 58.5781C268.027 58.8438 267.847 58.9844 267.722 59C267.613 59 267.394 59.0156 267.066 59.0469C266.753 59.0938 266.347 59.1406 265.847 59.1875C264.488 59.3125 263.433 59.375 262.683 59.375C261.917 59.375 261.425 59.3438 261.206 59.2812C260.988 59.2344 260.8 59.1406 260.644 59C260.347 58.75 260.05 58.2109 259.753 57.3828C257.847 58.7734 255.605 59.4688 253.027 59.4688C249.995 59.4688 247.659 58.3281 246.019 56.0469C244.441 53.8594 243.652 50.8438 243.652 47V46.9297C243.652 43.1797 244.816 40.2188 247.144 38.0469C249.269 36.0625 252.011 35.0703 255.37 35.0703C256.948 35.0703 258.323 35.2266 259.495 35.5391V25.9766H255.37C254.917 25.9766 254.613 25.5938 254.456 24.8281C254.425 24.6094 254.409 24.375 254.409 24.125C254.409 23.375 254.62 22.9219 255.042 22.7656C255.464 22.6094 256.019 22.4766 256.706 22.3672C257.394 22.2578 258.113 22.1719 258.863 22.1094C260.3 21.9844 261.683 21.9141 263.011 21.8984H263.034C263.691 21.8984 264.034 22.5625 264.066 23.8906V55.6953H268.003ZM253.659 55.8594C255.675 55.8594 257.62 55.0781 259.495 53.5156V40.2031C258.198 39.1875 256.73 38.6797 255.089 38.6797C252.167 38.6797 250.159 40.0938 249.066 42.9219C248.659 44 248.456 45.3594 248.456 47C248.456 48.6406 248.62 50.0234 248.948 51.1484C249.277 52.2578 249.691 53.1641 250.191 53.8672C251.159 55.1953 252.316 55.8594 253.659 55.8594ZM282.272 38.375C282.459 38.7812 282.553 39.2422 282.553 39.7578C282.553 40.2734 282.475 40.7266 282.319 41.1172C282.131 41.5078 281.897 41.8438 281.616 42.125C281.022 42.7188 280.264 43.0234 279.342 43.0391C277.889 43.0391 276.897 42.3984 276.366 41.1172C276.209 40.7266 276.131 40.2422 276.131 39.6641C276.131 39.1016 276.295 38.5703 276.623 38.0703C276.952 37.5703 277.381 37.1406 277.913 36.7812C278.459 36.4219 279.069 36.1328 279.741 35.9141C280.428 35.6953 281.123 35.5234 281.827 35.3984C283.061 35.1797 284.413 35.0703 285.881 35.0703C287.334 35.0703 288.592 35.3047 289.655 35.7734C290.733 36.2422 291.584 36.875 292.209 37.6719C293.288 39.0625 293.827 41.0312 293.827 43.5781V55.6953H297.764C298.186 55.6953 298.397 56.1562 298.397 57.0781C298.397 57.4844 298.319 57.8906 298.163 58.2969C298.006 58.6875 297.764 58.9219 297.436 59C296.561 59.25 295.311 59.375 293.686 59.375C292.045 59.375 291.131 59.3438 290.944 59.2812C290.756 59.2344 290.584 59.1406 290.428 59C290.131 58.7344 289.834 58.1953 289.538 57.3828C287.631 58.7734 285.334 59.4688 282.647 59.4688C280.241 59.4688 278.35 58.8281 276.975 57.5469C275.678 56.3594 275.03 54.8047 275.03 52.8828V52.8125C275.03 50.4219 275.913 48.5547 277.678 47.2109C279.225 46.0234 281.155 45.4297 283.467 45.4297H289.256C289.256 42.8203 289.038 41.1406 288.6 40.3906C288.178 39.625 287.663 39.1016 287.053 38.8203C286.459 38.5234 285.663 38.375 284.663 38.375H282.272ZM283.491 55.8594C285.459 55.8594 287.381 55.0781 289.256 53.5156V48.9453H284.147C282.897 48.9453 281.975 49.1562 281.381 49.5781C280.303 50.3281 279.764 51.1953 279.764 52.1797C279.764 54.0234 280.53 55.1797 282.061 55.6484C282.514 55.7891 282.991 55.8594 283.491 55.8594ZM329.025 55.6953C329.431 55.6953 329.634 56.1719 329.634 57.125C329.634 57.8281 329.517 58.3125 329.283 58.5781C329.048 58.8438 328.869 58.9844 328.744 59C328.634 59 328.416 59.0156 328.087 59.0469C327.775 59.0938 327.369 59.1406 326.869 59.1875C325.509 59.3125 324.455 59.375 323.705 59.375C322.939 59.375 322.447 59.3438 322.228 59.2812C322.009 59.2344 321.822 59.1406 321.666 59C321.369 58.75 321.072 58.2109 320.775 57.3828C318.869 58.7734 316.627 59.4688 314.048 59.4688C311.017 59.4688 308.681 58.3281 307.041 56.0469C305.462 53.8594 304.673 50.8438 304.673 47V46.9297C304.673 43.1797 305.837 40.2188 308.166 38.0469C310.291 36.0625 313.033 35.0703 316.392 35.0703C317.97 35.0703 319.345 35.2266 320.517 35.5391V25.9766H316.392C315.939 25.9766 315.634 25.5938 315.478 24.8281C315.447 24.6094 315.431 24.375 315.431 24.125C315.431 23.375 315.642 22.9219 316.064 22.7656C316.486 22.6094 317.041 22.4766 317.728 22.3672C318.416 22.2578 319.134 22.1719 319.884 22.1094C321.322 21.9844 322.705 21.9141 324.033 21.8984H324.056C324.712 21.8984 325.056 22.5625 325.087 23.8906V55.6953H329.025ZM314.681 55.8594C316.697 55.8594 318.642 55.0781 320.517 53.5156V40.2031C319.22 39.1875 317.752 38.6797 316.111 38.6797C313.189 38.6797 311.181 40.0938 310.087 42.9219C309.681 44 309.478 45.3594 309.478 47C309.478 48.6406 309.642 50.0234 309.97 51.1484C310.298 52.2578 310.712 53.1641 311.212 53.8672C312.181 55.1953 313.337 55.8594 314.681 55.8594ZM336.333 46.9531C336.333 45.0156 336.653 43.2969 337.294 41.7969C337.919 40.3281 338.762 39.0938 339.825 38.0938C341.981 36.0938 344.645 35.0859 347.817 35.0703H347.887C350.794 35.0703 353.036 35.9844 354.614 37.8125C356.192 39.625 356.981 42.2422 356.981 45.6641C356.981 46.3984 356.645 47.0312 355.973 47.5625C355.317 48.0781 354.489 48.3359 353.489 48.3359H341.137C341.419 51.9922 342.692 54.3359 344.958 55.3672C345.677 55.6953 346.434 55.8594 347.231 55.8594C348.028 55.8594 348.739 55.7734 349.364 55.6016C349.989 55.4141 350.591 55.1875 351.169 54.9219C351.747 54.6406 352.309 54.3281 352.856 53.9844C353.997 53.2656 354.669 52.9062 354.872 52.9062C355.059 52.9219 355.262 53.0156 355.481 53.1875C355.669 53.375 355.856 53.5938 356.044 53.8438C356.45 54.4375 356.661 54.9375 356.677 55.3438V55.3906C356.677 55.7656 356.591 56.0156 356.419 56.1406C353.559 58.3594 350.309 59.4688 346.669 59.4688C343.403 59.4688 340.856 58.3281 339.028 56.0469C337.231 53.8281 336.333 50.7969 336.333 46.9531ZM352.177 44.8203V44.7266C352.177 41.6328 351.278 39.7266 349.481 39.0078C348.919 38.7891 348.294 38.6797 347.606 38.6797C346.919 38.6797 346.2 38.8047 345.45 39.0547C344.7 39.3203 344.012 39.7031 343.387 40.2031C341.997 41.3438 341.247 42.8828 341.137 44.8203H352.177Z" fill="#191970"/>
<defs>
<filter id="filter0_d_526_1050" x="20.502" y="25.316" width="46.6357" height="45.596" filterUnits="userSpaceOnUse" color-interpolation-filters="sRGB">
<feFlood flood-opacity="0" result="BackgroundImageFix"/>
<feColorMatrix in="SourceAlpha" type="matrix" values="0 0 0 0 0 0 0 0 0 0 0 0 0 0 0 0 0 0 127 0" result="hardAlpha"/>
<feOffset dy="4"/>
<feGaussianBlur stdDeviation="2"/>
<feComposite in2="hardAlpha" operator="out"/>
<feColorMatrix type="matrix" values="0 0 0 0 0 0 0 0 0 0 0 0 0 0 0 0 0 0 0.25 0"/>
<feBlend mode="normal" in2="BackgroundImageFix" result="effect1_dropShadow_526_1050"/>
<feBlend mode="normal" in="SourceGraphic" in2="effect1_dropShadow_526_1050" result="shape"/>
</filter>
</defs>
</svg>
