<?xml version="1.0" encoding="UTF-8" standalone="no"?>
<!-- Created with Inkscape (http://www.inkscape.org/) -->

<svg
   width="39.163986mm"
   height="22.565954mm"
   viewBox="0 0 39.163988 22.565955"
   version="1.1"
   id="svg25870"
   inkscape:version="1.1.1 (3bf5ae0d25, 2021-09-20)"
   sodipodi:docname="F.svg"
   xmlns:inkscape="http://www.inkscape.org/namespaces/inkscape"
   xmlns:sodipodi="http://sodipodi.sourceforge.net/DTD/sodipodi-0.dtd"
   xmlns="http://www.w3.org/2000/svg"
   xmlns:svg="http://www.w3.org/2000/svg">
  <sodipodi:namedview
     id="namedview25872"
     pagecolor="#505050"
     bordercolor="#eeeeee"
     borderopacity="1"
     inkscape:pageshadow="0"
     inkscape:pageopacity="0"
     inkscape:pagecheckerboard="0"
     inkscape:document-units="mm"
     showgrid="false"
     inkscape:zoom="5.9295174"
     inkscape:cx="79.517433"
     inkscape:cy="45.281931"
     inkscape:window-width="2560"
     inkscape:window-height="1017"
     inkscape:window-x="-8"
     inkscape:window-y="-8"
     inkscape:window-maximized="1"
     inkscape:current-layer="layer1" />
  <defs
     id="defs25867" />
  <g
     inkscape:label="Camada 1"
     inkscape:groupmode="layer"
     id="layer1"
     transform="translate(-69.779112,-143.37477)">
    <g
       id="g28947">
      <g
         id="g26644"
         style="stroke-width:1.00013;stroke-miterlimit:4;stroke-dasharray:none">
        <g
           id="g26202"
           transform="translate(-10.753756,-0.04462139)"
           style="stroke-width:1.00013;stroke-miterlimit:4;stroke-dasharray:none">
          <path
             id="path26162"
             style="fill:#191970;fill-opacity:1;stroke:#191970;stroke-width:1.00013;stroke-linecap:round;stroke-miterlimit:4;stroke-dasharray:none;stroke-opacity:1;paint-order:markers stroke fill"
             d="m 106.7015,143.92126 c -0.0423,0 -0.0843,0.002 -0.12558,0.005 -0.0413,0.003 -0.0823,0.008 -0.12247,0.0139 -0.0402,0.006 -0.0797,0.0143 -0.11886,0.0238 -0.0392,0.01 -0.0776,0.0209 -0.11575,0.0336 -0.0339,0.008 -0.0665,0.0178 -0.0971,0.0284 -0.0307,0.0106 -0.0598,0.0224 -0.0873,0.0351 -0.0275,0.0127 -0.0532,0.0265 -0.0775,0.0413 -0.0243,0.0148 -0.047,0.0306 -0.0682,0.0475 l -3.2768,2.76831 c -0.0296,0.0254 -0.0578,0.0525 -0.0842,0.0811 -0.0265,0.0286 -0.0511,0.0587 -0.0744,0.0904 -0.0233,0.0318 -0.045,0.0653 -0.0651,0.10025 -0.0201,0.0349 -0.0389,0.0715 -0.0558,0.10956 -0.0127,0.0381 -0.0236,0.0781 -0.0331,0.1204 -0.01,0.0423 -0.0174,0.0868 -0.0238,0.13333 -0.006,0.0466 -0.0113,0.0954 -0.0145,0.14624 -0.003,0.0508 -0.005,0.10362 -0.005,0.15865 v 16.45894 c 0,0.0508 0.001,0.0999 0.004,0.14728 0.003,0.0474 0.008,0.093 0.0134,0.13694 0.006,0.0439 0.013,0.0861 0.0217,0.12661 0.009,0.0405 0.0188,0.0792 0.0305,0.11627 0.0116,0.037 0.0247,0.0723 0.0393,0.10594 0.0145,0.0336 0.0306,0.0654 0.0481,0.0956 0.0175,0.0302 0.0365,0.0591 0.0568,0.0858 0.0204,0.0267 0.0423,0.0516 0.0656,0.0749 0.0233,0.0233 0.0482,0.0447 0.0749,0.0651 0.0267,0.0204 0.0551,0.0394 0.0853,0.0568 0.0302,0.0175 0.062,0.0335 0.0956,0.0481 0.0336,0.0146 0.0689,0.0276 0.10594,0.0393 0.037,0.0116 0.0758,0.0217 0.11627,0.0305 0.0405,0.009 0.0827,0.0164 0.1266,0.0222 0.0439,0.006 0.0896,0.01 0.13695,0.0129 0.0474,0.003 0.0965,0.004 0.14728,0.004 h 3.93671 c 0.0423,0 0.0838,-10e-4 0.12402,-0.005 0.0402,-0.003 0.0792,-0.008 0.11731,-0.014 0.0381,-0.006 0.0751,-0.0148 0.1111,-0.0243 0.036,-0.01 0.071,-0.0204 0.1049,-0.0331 0.0762,-0.0254 0.14186,-0.053 0.19689,-0.0827 0.0275,-0.0148 0.0527,-0.0301 0.0749,-0.046 0.0222,-0.0159 0.0415,-0.0322 0.0584,-0.0491 l 3.30213,-2.7435 c 0.0296,-0.0254 0.0573,-0.052 0.0827,-0.0806 0.0254,-0.0286 0.0486,-0.0587 0.0698,-0.0904 0.0212,-0.0318 0.0399,-0.0653 0.0568,-0.10026 0.0169,-0.0349 0.0317,-0.0714 0.0444,-0.10955 0.0169,-0.0381 0.0317,-0.0781 0.0444,-0.12041 0.0127,-0.0423 0.0236,-0.0868 0.032,-0.13332 0.008,-0.0466 0.0149,-0.0954 0.0191,-0.14625 0.004,-0.0508 0.006,-0.10361 0.006,-0.15864 v -1.98128 h 0.88884 c 0.0423,0 0.0838,-0.001 0.12402,-0.005 0.0402,-0.003 0.0792,-0.008 0.1173,-0.0145 0.0381,-0.006 0.0751,-0.0142 0.11111,-0.0238 0.036,-0.01 0.071,-0.0204 0.1049,-0.0331 0.0762,-0.0254 0.14185,-0.0531 0.19689,-0.0827 0.0275,-0.0148 0.0522,-0.0301 0.0744,-0.046 0.0222,-0.0159 0.042,-0.0327 0.0589,-0.0496 l 3.30213,-2.74299 c 0.0296,-0.0254 0.0573,-0.0526 0.0827,-0.0811 0.0254,-0.0286 0.0486,-0.0587 0.0698,-0.0904 0.0212,-0.0317 0.0399,-0.0648 0.0568,-0.0997 0.0169,-0.0349 0.0317,-0.0715 0.0444,-0.10956 0.0169,-0.0381 0.0317,-0.0786 0.0444,-0.12092 0.0127,-0.0423 0.0236,-0.0868 0.032,-0.13332 0.008,-0.0466 0.0149,-0.0949 0.0191,-0.14573 0.004,-0.0508 0.006,-0.10413 0.006,-0.15916 v -3.04788 c 0,-0.0508 -10e-4,-0.0999 -0.004,-0.14728 -0.003,-0.0474 -0.008,-0.093 -0.0134,-0.13694 -0.006,-0.0439 -0.013,-0.0861 -0.0217,-0.12661 -0.009,-0.0405 -0.0189,-0.0792 -0.0305,-0.11627 -0.0117,-0.037 -0.0247,-0.0723 -0.0393,-0.10594 -0.0145,-0.0336 -0.0306,-0.0654 -0.0481,-0.0956 -0.0175,-0.0302 -0.0365,-0.0585 -0.0568,-0.0853 -0.0204,-0.0267 -0.0423,-0.0517 -0.0656,-0.0749 -0.0233,-0.0233 -0.048,-0.0453 -0.0744,-0.0656 -0.0265,-0.0204 -0.0546,-0.0394 -0.0842,-0.0568 -0.0296,-0.0175 -0.0607,-0.0335 -0.0935,-0.0481 -0.0328,-0.0145 -0.0674,-0.0276 -0.10335,-0.0393 -0.036,-0.0116 -0.0735,-0.0218 -0.11266,-0.0305 -0.0392,-0.009 -0.0796,-0.0159 -0.12195,-0.0217 -0.0423,-0.006 -0.0863,-0.01 -0.13178,-0.0129 -0.0455,-0.003 -0.0929,-0.005 -0.14159,-0.005 l 2.84479,-2.36213 c 0.0296,-0.0254 0.0573,-0.0526 0.0827,-0.0811 0.0254,-0.0286 0.0486,-0.0587 0.0698,-0.0904 0.0212,-0.0318 0.0404,-0.0648 0.0574,-0.0997 0.0169,-0.0349 0.0317,-0.0715 0.0444,-0.10956 0.0169,-0.0381 0.0317,-0.0786 0.0444,-0.12092 0.0127,-0.0423 0.0231,-0.0868 0.0315,-0.13333 0.008,-0.0466 0.0149,-0.0949 0.0191,-0.14572 0.004,-0.0508 0.006,-0.10414 0.006,-0.15917 v -3.02255 c 0,-0.0508 -10e-4,-0.0999 -0.004,-0.14728 -0.003,-0.0474 -0.008,-0.093 -0.0134,-0.13694 -0.006,-0.0439 -0.013,-0.0861 -0.0217,-0.12661 -0.009,-0.0405 -0.0189,-0.0792 -0.0305,-0.11627 -0.0116,-0.037 -0.0247,-0.0723 -0.0393,-0.10594 -0.0145,-0.0336 -0.0306,-0.0654 -0.0481,-0.0956 -0.0175,-0.0302 -0.0365,-0.0585 -0.0568,-0.0853 -0.0204,-0.0267 -0.0418,-0.0516 -0.0651,-0.0749 -0.0233,-0.0233 -0.0487,-0.0452 -0.0755,-0.0656 -0.0267,-0.0204 -0.0551,-0.0394 -0.0853,-0.0568 -0.0302,-0.0175 -0.062,-0.033 -0.0956,-0.0475 -0.0336,-0.0146 -0.0689,-0.0281 -0.10593,-0.0398 -0.037,-0.0117 -0.0758,-0.0218 -0.11628,-0.0305 -0.0405,-0.009 -0.0827,-0.0159 -0.1266,-0.0217 -0.0439,-0.006 -0.0896,-0.01 -0.13695,-0.0129 -0.0474,-0.003 -0.0965,-0.005 -0.14727,-0.005 z m 0,0.25425 h 11.32799 c 0.0804,0 0.15496,0.004 0.22375,0.0139 0.0688,0.01 0.13199,0.0238 0.18914,0.0429 0.0286,0.01 0.0555,0.0207 0.0811,0.0326 0.0257,0.0119 0.0501,0.025 0.0729,0.0393 0.0228,0.0143 0.0442,0.0298 0.0641,0.0465 0.0198,0.0167 0.0378,0.0342 0.0548,0.0532 0.019,0.0169 0.0371,0.0354 0.0537,0.0553 0.0167,0.0198 0.0322,0.0413 0.0465,0.0641 0.0143,0.0228 0.0274,0.0467 0.0393,0.0724 0.0119,0.0257 0.0225,0.0531 0.032,0.0816 0.019,0.0571 0.0334,0.11983 0.0429,0.18862 0.01,0.0688 0.0145,0.14333 0.0145,0.22376 v 3.02255 c 0,0.0804 -0.005,0.15598 -0.0145,0.22583 -0.01,0.0699 -0.0238,0.134 -0.0429,0.19327 -0.01,0.0296 -0.0201,0.0583 -0.032,0.0853 -0.0119,0.027 -0.025,0.0527 -0.0393,0.077 -0.0143,0.0243 -0.0298,0.047 -0.0465,0.0687 -0.0167,0.0217 -0.0347,0.0425 -0.0537,0.0615 -0.0169,0.0169 -0.0349,0.0327 -0.0548,0.0475 -0.0198,0.0148 -0.0413,0.0286 -0.0641,0.0413 -0.0228,0.0127 -0.0472,0.024 -0.0729,0.0346 -0.0257,0.0106 -0.0525,0.0205 -0.0811,0.0289 -0.0571,0.0169 -0.12034,0.0293 -0.18914,0.0377 -0.0688,0.008 -0.14332,0.0129 -0.22375,0.0129 h -6.47661 v 2.64169 h 4.41937 c 0.0804,0 0.15496,0.004 0.22375,0.014 0.0688,0.01 0.13199,0.0238 0.18914,0.0429 0.0286,0.01 0.0555,0.0201 0.0811,0.032 0.0257,0.0119 0.0501,0.0255 0.0729,0.0398 0.0228,0.0143 0.0437,0.0293 0.0636,0.046 0.0198,0.0167 0.0384,0.0347 0.0553,0.0537 0.0191,0.0169 0.0371,0.0355 0.0538,0.0553 0.0167,0.0198 0.0322,0.0408 0.0465,0.0636 0.0143,0.0227 0.0274,0.0472 0.0393,0.0729 0.0119,0.0257 0.0225,0.0526 0.032,0.0811 0.0191,0.0571 0.0334,0.12034 0.0429,0.18913 0.01,0.0688 0.014,0.14333 0.014,0.22376 v 3.04788 c 0,0.0804 -0.004,0.15597 -0.014,0.22582 -0.01,0.0699 -0.0238,0.13401 -0.0429,0.19327 -0.01,0.0296 -0.0201,0.0583 -0.032,0.0853 -0.0119,0.027 -0.025,0.0527 -0.0393,0.077 -0.0143,0.0243 -0.0298,0.047 -0.0465,0.0687 -0.0167,0.0217 -0.0347,0.0424 -0.0538,0.0615 -0.0169,0.0169 -0.0354,0.0327 -0.0553,0.0475 -0.0198,0.0148 -0.0408,0.0286 -0.0636,0.0413 -0.0228,0.0127 -0.0472,0.024 -0.0729,0.0346 -0.0257,0.0106 -0.0526,0.0205 -0.0811,0.0289 -0.0572,0.0169 -0.12034,0.0293 -0.18914,0.0377 -0.0688,0.008 -0.14332,0.0129 -0.22375,0.0129 h -4.41937 v 5.00383 c 0,0.0804 -0.005,0.15546 -0.0145,0.22531 -0.01,0.0699 -0.0238,0.13452 -0.0429,0.19379 -0.01,0.0296 -0.0201,0.0578 -0.032,0.0847 -0.0119,0.027 -0.025,0.0527 -0.0393,0.077 -0.0143,0.0243 -0.0298,0.0476 -0.0465,0.0692 -0.0167,0.0217 -0.0347,0.0419 -0.0538,0.061 -0.0169,0.0169 -0.0354,0.0327 -0.0553,0.0475 -0.0198,0.0148 -0.0408,0.0286 -0.0636,0.0413 -0.0228,0.0127 -0.0472,0.0246 -0.0729,0.0351 -0.0257,0.0106 -0.0526,0.02 -0.0811,0.0284 -0.0572,0.0169 -0.12034,0.0298 -0.18913,0.0382 -0.0688,0.008 -0.14333,0.0124 -0.22377,0.0124 h -3.9367 c -0.0804,0 -0.15598,-0.004 -0.22583,-0.0124 -0.0699,-0.008 -0.13452,-0.0213 -0.19379,-0.0382 -0.0593,-0.0169 -0.11306,-0.0382 -0.16174,-0.0636 -0.0243,-0.0127 -0.047,-0.0265 -0.0687,-0.0413 -0.0217,-0.0148 -0.0424,-0.0306 -0.0615,-0.0475 -0.0169,-0.019 -0.0327,-0.0393 -0.0475,-0.061 -0.0148,-0.0217 -0.0286,-0.0449 -0.0413,-0.0692 -0.0254,-0.0487 -0.0466,-0.10248 -0.0636,-0.16174 -0.0169,-0.0593 -0.0293,-0.12394 -0.0377,-0.19379 -0.008,-0.0698 -0.0129,-0.14488 -0.0129,-0.22531 v -16.45946 c 0,-0.0804 0.005,-0.15497 0.0129,-0.22376 0.008,-0.0688 0.0208,-0.13147 0.0377,-0.18862 0.008,-0.0286 0.0184,-0.056 0.0289,-0.0816 0.0106,-0.0257 0.0219,-0.0496 0.0346,-0.0724 0.0127,-0.0228 0.0265,-0.0442 0.0413,-0.0641 0.0148,-0.0198 0.0306,-0.0384 0.0475,-0.0553 0.019,-0.0191 0.0398,-0.0366 0.0615,-0.0532 0.0217,-0.0167 0.0444,-0.0322 0.0687,-0.0465 0.0243,-0.0143 0.05,-0.0274 0.077,-0.0393 0.027,-0.0119 0.0551,-0.023 0.0847,-0.0326 0.0593,-0.0191 0.12393,-0.0334 0.19378,-0.0429 0.0699,-0.01 0.1454,-0.0139 0.22583,-0.0139 z" />
          <path
             id="path25850"
             style="fill:#bdff00;fill-opacity:1;stroke:none;stroke-width:1.00013;stroke-linecap:round;stroke-miterlimit:4;stroke-dasharray:none;stroke-opacity:1;paint-order:markers stroke fill"
             d="m 106.7015,143.92126 c -0.0423,0 -0.0843,0.002 -0.12558,0.005 -0.0413,0.003 -0.0823,0.008 -0.12247,0.0139 -0.0402,0.006 -0.0797,0.0143 -0.11886,0.0238 -0.0392,0.01 -0.0776,0.0209 -0.11575,0.0336 -0.0339,0.008 -0.0665,0.0178 -0.0971,0.0284 -0.0307,0.0106 -0.0598,0.0224 -0.0873,0.0351 -0.0275,0.0127 -0.0532,0.0265 -0.0775,0.0413 -0.0243,0.0148 -0.047,0.0306 -0.0682,0.0475 l -3.2768,2.76831 c -0.0296,0.0254 -0.0578,0.0525 -0.0842,0.0811 -0.0265,0.0286 -0.0511,0.0587 -0.0744,0.0904 -0.0233,0.0318 -0.045,0.0653 -0.0651,0.10025 -0.0201,0.0349 -0.0389,0.0715 -0.0558,0.10956 -0.0127,0.0381 -0.0236,0.0781 -0.0331,0.1204 -0.01,0.0423 -0.0174,0.0868 -0.0238,0.13333 -0.006,0.0466 -0.0113,0.0954 -0.0145,0.14624 -0.003,0.0508 -0.005,0.10362 -0.005,0.15865 v 16.45894 c 0,0.0508 0.001,0.0999 0.004,0.14728 0.003,0.0474 0.008,0.093 0.0134,0.13694 0.006,0.0439 0.013,0.0861 0.0217,0.12661 0.009,0.0405 0.0188,0.0792 0.0305,0.11627 0.0116,0.037 0.0247,0.0723 0.0393,0.10594 0.0145,0.0336 0.0306,0.0654 0.0481,0.0956 0.0175,0.0302 0.0365,0.0591 0.0568,0.0858 0.0204,0.0267 0.0423,0.0516 0.0656,0.0749 0.0233,0.0233 0.0482,0.0447 0.0749,0.0651 0.0267,0.0204 0.0551,0.0394 0.0853,0.0568 0.0302,0.0175 0.062,0.0335 0.0956,0.0481 0.0336,0.0146 0.0689,0.0276 0.10594,0.0393 0.037,0.0116 0.0758,0.0217 0.11627,0.0305 0.0405,0.009 0.0827,0.0164 0.1266,0.0222 0.0439,0.006 0.0896,0.01 0.13695,0.0129 0.0474,0.003 0.0965,0.004 0.14728,0.004 h 3.93671 c 0.0423,0 0.0838,-10e-4 0.12402,-0.005 0.0402,-0.003 0.0792,-0.008 0.11731,-0.014 0.0381,-0.006 0.0751,-0.0148 0.1111,-0.0243 0.036,-0.01 0.071,-0.0204 0.1049,-0.0331 0.0762,-0.0254 0.14186,-0.053 0.19689,-0.0827 0.0275,-0.0148 0.0527,-0.0301 0.0749,-0.046 0.0222,-0.0159 0.0415,-0.0322 0.0584,-0.0491 l 3.30213,-2.7435 c 0.0296,-0.0254 0.0573,-0.052 0.0827,-0.0806 0.0254,-0.0286 0.0486,-0.0587 0.0698,-0.0904 0.0212,-0.0318 0.0399,-0.0653 0.0568,-0.10026 0.0169,-0.0349 0.0317,-0.0714 0.0444,-0.10955 0.0169,-0.0381 0.0317,-0.0781 0.0444,-0.12041 0.0127,-0.0423 0.0236,-0.0868 0.032,-0.13332 0.008,-0.0466 0.0149,-0.0954 0.0191,-0.14625 0.004,-0.0508 0.006,-0.10361 0.006,-0.15864 v -1.98128 h 0.88884 c 0.0423,0 0.0838,-0.001 0.12402,-0.005 0.0402,-0.003 0.0792,-0.008 0.1173,-0.0145 0.0381,-0.006 0.0751,-0.0142 0.11111,-0.0238 0.036,-0.01 0.071,-0.0204 0.1049,-0.0331 0.0762,-0.0254 0.14185,-0.0531 0.19689,-0.0827 0.0275,-0.0148 0.0522,-0.0301 0.0744,-0.046 0.0222,-0.0159 0.042,-0.0327 0.0589,-0.0496 l 3.30213,-2.74299 c 0.0296,-0.0254 0.0573,-0.0526 0.0827,-0.0811 0.0254,-0.0286 0.0486,-0.0587 0.0698,-0.0904 0.0212,-0.0317 0.0399,-0.0648 0.0568,-0.0997 0.0169,-0.0349 0.0317,-0.0715 0.0444,-0.10956 0.0169,-0.0381 0.0317,-0.0786 0.0444,-0.12092 0.0127,-0.0423 0.0236,-0.0868 0.032,-0.13332 0.008,-0.0466 0.0149,-0.0949 0.0191,-0.14573 0.004,-0.0508 0.006,-0.10413 0.006,-0.15916 v -3.04788 c 0,-0.0508 -10e-4,-0.0999 -0.004,-0.14728 -0.003,-0.0474 -0.008,-0.093 -0.0134,-0.13694 -0.006,-0.0439 -0.013,-0.0861 -0.0217,-0.12661 -0.009,-0.0405 -0.0189,-0.0792 -0.0305,-0.11627 -0.0117,-0.037 -0.0247,-0.0723 -0.0393,-0.10594 -0.0145,-0.0336 -0.0306,-0.0654 -0.0481,-0.0956 -0.0175,-0.0302 -0.0365,-0.0585 -0.0568,-0.0853 -0.0204,-0.0267 -0.0423,-0.0517 -0.0656,-0.0749 -0.0233,-0.0233 -0.048,-0.0453 -0.0744,-0.0656 -0.0265,-0.0204 -0.0546,-0.0394 -0.0842,-0.0568 -0.0296,-0.0175 -0.0607,-0.0335 -0.0935,-0.0481 -0.0328,-0.0145 -0.0674,-0.0276 -0.10335,-0.0393 -0.036,-0.0116 -0.0735,-0.0218 -0.11266,-0.0305 -0.0392,-0.009 -0.0796,-0.0159 -0.12195,-0.0217 -0.0423,-0.006 -0.0863,-0.01 -0.13178,-0.0129 -0.0455,-0.003 -0.0929,-0.005 -0.14159,-0.005 l 2.84479,-2.36213 c 0.0296,-0.0254 0.0573,-0.0526 0.0827,-0.0811 0.0254,-0.0286 0.0486,-0.0587 0.0698,-0.0904 0.0212,-0.0318 0.0404,-0.0648 0.0574,-0.0997 0.0169,-0.0349 0.0317,-0.0715 0.0444,-0.10956 0.0169,-0.0381 0.0317,-0.0786 0.0444,-0.12092 0.0127,-0.0423 0.0231,-0.0868 0.0315,-0.13333 0.008,-0.0466 0.0149,-0.0949 0.0191,-0.14572 0.004,-0.0508 0.006,-0.10414 0.006,-0.15917 v -3.02255 c 0,-0.0508 -10e-4,-0.0999 -0.004,-0.14728 -0.003,-0.0474 -0.008,-0.093 -0.0134,-0.13694 -0.006,-0.0439 -0.013,-0.0861 -0.0217,-0.12661 -0.009,-0.0405 -0.0189,-0.0792 -0.0305,-0.11627 -0.0116,-0.037 -0.0247,-0.0723 -0.0393,-0.10594 -0.0145,-0.0336 -0.0306,-0.0654 -0.0481,-0.0956 -0.0175,-0.0302 -0.0365,-0.0585 -0.0568,-0.0853 -0.0204,-0.0267 -0.0418,-0.0516 -0.0651,-0.0749 -0.0233,-0.0233 -0.0487,-0.0452 -0.0755,-0.0656 -0.0267,-0.0204 -0.0551,-0.0394 -0.0853,-0.0568 -0.0302,-0.0175 -0.062,-0.033 -0.0956,-0.0475 -0.0336,-0.0146 -0.0689,-0.0281 -0.10593,-0.0398 -0.037,-0.0117 -0.0758,-0.0218 -0.11628,-0.0305 -0.0405,-0.009 -0.0827,-0.0159 -0.1266,-0.0217 -0.0439,-0.006 -0.0896,-0.01 -0.13695,-0.0129 -0.0474,-0.003 -0.0965,-0.005 -0.14727,-0.005 z m 0,0.25425 h 11.32799 c 0.0804,0 0.15496,0.004 0.22375,0.0139 0.0688,0.01 0.13199,0.0238 0.18914,0.0429 0.0286,0.01 0.0555,0.0207 0.0811,0.0326 0.0257,0.0119 0.0501,0.025 0.0729,0.0393 0.0228,0.0143 0.0442,0.0298 0.0641,0.0465 0.0198,0.0167 0.0378,0.0342 0.0548,0.0532 0.019,0.0169 0.0371,0.0354 0.0537,0.0553 0.0167,0.0198 0.0322,0.0413 0.0465,0.0641 0.0143,0.0228 0.0274,0.0467 0.0393,0.0724 0.0119,0.0257 0.0225,0.0531 0.032,0.0816 0.019,0.0571 0.0334,0.11983 0.0429,0.18862 0.01,0.0688 0.0145,0.14333 0.0145,0.22376 v 3.02255 c 0,0.0804 -0.005,0.15598 -0.0145,0.22583 -0.01,0.0699 -0.0238,0.134 -0.0429,0.19327 -0.01,0.0296 -0.0201,0.0583 -0.032,0.0853 -0.0119,0.027 -0.025,0.0527 -0.0393,0.077 -0.0143,0.0243 -0.0298,0.047 -0.0465,0.0687 -0.0167,0.0217 -0.0347,0.0425 -0.0537,0.0615 -0.0169,0.0169 -0.0349,0.0327 -0.0548,0.0475 -0.0198,0.0148 -0.0413,0.0286 -0.0641,0.0413 -0.0228,0.0127 -0.0472,0.024 -0.0729,0.0346 -0.0257,0.0106 -0.0525,0.0205 -0.0811,0.0289 -0.0571,0.0169 -0.12034,0.0293 -0.18914,0.0377 -0.0688,0.008 -0.14332,0.0129 -0.22375,0.0129 h -6.47661 v 2.64169 h 4.41937 c 0.0804,0 0.15496,0.004 0.22375,0.014 0.0688,0.01 0.13199,0.0238 0.18914,0.0429 0.0286,0.01 0.0555,0.0201 0.0811,0.032 0.0257,0.0119 0.0501,0.0255 0.0729,0.0398 0.0228,0.0143 0.0437,0.0293 0.0636,0.046 0.0198,0.0167 0.0384,0.0347 0.0553,0.0537 0.0191,0.0169 0.0371,0.0355 0.0538,0.0553 0.0167,0.0198 0.0322,0.0408 0.0465,0.0636 0.0143,0.0227 0.0274,0.0472 0.0393,0.0729 0.0119,0.0257 0.0225,0.0526 0.032,0.0811 0.0191,0.0571 0.0334,0.12034 0.0429,0.18913 0.01,0.0688 0.014,0.14333 0.014,0.22376 v 3.04788 c 0,0.0804 -0.004,0.15597 -0.014,0.22582 -0.01,0.0699 -0.0238,0.13401 -0.0429,0.19327 -0.01,0.0296 -0.0201,0.0583 -0.032,0.0853 -0.0119,0.027 -0.025,0.0527 -0.0393,0.077 -0.0143,0.0243 -0.0298,0.047 -0.0465,0.0687 -0.0167,0.0217 -0.0347,0.0424 -0.0538,0.0615 -0.0169,0.0169 -0.0354,0.0327 -0.0553,0.0475 -0.0198,0.0148 -0.0408,0.0286 -0.0636,0.0413 -0.0228,0.0127 -0.0472,0.024 -0.0729,0.0346 -0.0257,0.0106 -0.0526,0.0205 -0.0811,0.0289 -0.0572,0.0169 -0.12034,0.0293 -0.18914,0.0377 -0.0688,0.008 -0.14332,0.0129 -0.22375,0.0129 h -4.41937 v 5.00383 c 0,0.0804 -0.005,0.15546 -0.0145,0.22531 -0.01,0.0699 -0.0238,0.13452 -0.0429,0.19379 -0.01,0.0296 -0.0201,0.0578 -0.032,0.0847 -0.0119,0.027 -0.025,0.0527 -0.0393,0.077 -0.0143,0.0243 -0.0298,0.0476 -0.0465,0.0692 -0.0167,0.0217 -0.0347,0.0419 -0.0538,0.061 -0.0169,0.0169 -0.0354,0.0327 -0.0553,0.0475 -0.0198,0.0148 -0.0408,0.0286 -0.0636,0.0413 -0.0228,0.0127 -0.0472,0.0246 -0.0729,0.0351 -0.0257,0.0106 -0.0526,0.02 -0.0811,0.0284 -0.0572,0.0169 -0.12034,0.0298 -0.18913,0.0382 -0.0688,0.008 -0.14333,0.0124 -0.22377,0.0124 h -3.9367 c -0.0804,0 -0.15598,-0.004 -0.22583,-0.0124 -0.0699,-0.008 -0.13452,-0.0213 -0.19379,-0.0382 -0.0593,-0.0169 -0.11306,-0.0382 -0.16174,-0.0636 -0.0243,-0.0127 -0.047,-0.0265 -0.0687,-0.0413 -0.0217,-0.0148 -0.0424,-0.0306 -0.0615,-0.0475 -0.0169,-0.019 -0.0327,-0.0393 -0.0475,-0.061 -0.0148,-0.0217 -0.0286,-0.0449 -0.0413,-0.0692 -0.0254,-0.0487 -0.0466,-0.10248 -0.0636,-0.16174 -0.0169,-0.0593 -0.0293,-0.12394 -0.0377,-0.19379 -0.008,-0.0698 -0.0129,-0.14488 -0.0129,-0.22531 v -16.45946 c 0,-0.0804 0.005,-0.15497 0.0129,-0.22376 0.008,-0.0688 0.0208,-0.13147 0.0377,-0.18862 0.008,-0.0286 0.0184,-0.056 0.0289,-0.0816 0.0106,-0.0257 0.0219,-0.0496 0.0346,-0.0724 0.0127,-0.0228 0.0265,-0.0442 0.0413,-0.0641 0.0148,-0.0198 0.0306,-0.0384 0.0475,-0.0553 0.019,-0.0191 0.0398,-0.0366 0.0615,-0.0532 0.0217,-0.0167 0.0444,-0.0322 0.0687,-0.0465 0.0243,-0.0143 0.05,-0.0274 0.077,-0.0393 0.027,-0.0119 0.0551,-0.023 0.0847,-0.0326 0.0593,-0.0191 0.12393,-0.0334 0.19378,-0.0429 0.0699,-0.01 0.1454,-0.0139 0.22583,-0.0139 z" />
        </g>
        <g
           id="g25848"
           transform="translate(-105.59806,25.971019)"
           style="stroke-width:1.00013;stroke-miterlimit:4;stroke-dasharray:none">
          <path
             id="path25844"
             style="fill:#bdff00;fill-opacity:1;stroke:none;stroke-width:1.00013;stroke-miterlimit:4;stroke-dasharray:none;stroke-opacity:1;paint-order:stroke fill markers"
             d="m 203.39976,120.44566 v 13.71596 h 0.25373 v -5.94382 h 5.79138 v -0.25373 h -5.79138 v -7.26467 h 7.84862 v -0.25374 z" />
          <path
             id="path25846"
             style="fill:#191970;fill-opacity:1;stroke:none;stroke-width:1.00013;stroke-miterlimit:4;stroke-dasharray:none;stroke-opacity:1;paint-order:stroke fill markers"
             d="m 201.54561,118.1595 c -0.0804,0 -0.15597,0.004 -0.22582,0.0139 -0.0699,0.01 -0.13452,0.0238 -0.19379,0.0429 -0.0296,0.01 -0.0578,0.0207 -0.0848,0.0326 -0.027,0.0119 -0.0527,0.025 -0.077,0.0393 -0.0243,0.0143 -0.047,0.0298 -0.0687,0.0465 -0.0217,0.0167 -0.0424,0.0342 -0.0615,0.0532 -0.0169,0.0169 -0.0327,0.0354 -0.0475,0.0553 -0.0148,0.0199 -0.0286,0.0413 -0.0413,0.0641 -0.0127,0.0228 -0.024,0.0467 -0.0346,0.0724 -0.0106,0.0257 -0.0205,0.0531 -0.0289,0.0816 -0.0169,0.0572 -0.0292,0.11982 -0.0377,0.18862 -0.008,0.0688 -0.0129,0.14332 -0.0129,0.22376 v 16.45945 c 0,0.0804 0.005,0.15546 0.0129,0.22531 0.008,0.0699 0.0208,0.13453 0.0377,0.19379 0.0169,0.0593 0.0382,0.11306 0.0636,0.16175 0.0127,0.0243 0.0265,0.0476 0.0413,0.0692 0.0148,0.0217 0.0306,0.0419 0.0475,0.061 0.0191,0.0169 0.0398,0.0327 0.0615,0.0476 0.0217,0.0148 0.0444,0.0286 0.0687,0.0413 0.0487,0.0254 0.10248,0.0466 0.16175,0.0636 0.0593,0.0169 0.12393,0.0298 0.19378,0.0382 0.0699,0.008 0.1454,0.0124 0.22583,0.0124 h 3.93671 c 0.0804,0 0.15497,-0.004 0.22376,-0.0124 0.0688,-0.008 0.13199,-0.0213 0.18914,-0.0382 0.0286,-0.008 0.0555,-0.0178 0.0811,-0.0284 0.0257,-0.0106 0.0501,-0.0224 0.0729,-0.0351 0.0228,-0.0127 0.0437,-0.0265 0.0636,-0.0413 0.0198,-0.0148 0.0384,-0.0306 0.0553,-0.0476 0.019,-0.0191 0.0371,-0.0393 0.0538,-0.061 0.0167,-0.0217 0.0322,-0.0449 0.0465,-0.0692 0.0143,-0.0243 0.0274,-0.05 0.0393,-0.077 0.0119,-0.027 0.0225,-0.0551 0.032,-0.0848 0.019,-0.0593 0.0334,-0.12394 0.0429,-0.19379 0.01,-0.0699 0.0145,-0.14487 0.0145,-0.22531 v -5.00382 h 4.41937 c 0.0804,0 0.15496,-0.004 0.22376,-0.0129 0.0688,-0.008 0.13199,-0.0208 0.18914,-0.0377 0.0286,-0.008 0.0555,-0.0183 0.0811,-0.0289 0.0257,-0.0106 0.0501,-0.0219 0.0729,-0.0346 0.0228,-0.0127 0.0437,-0.0265 0.0636,-0.0413 0.0198,-0.0148 0.0384,-0.0306 0.0553,-0.0475 0.0191,-0.0191 0.0371,-0.0398 0.0537,-0.0615 0.0167,-0.0217 0.0322,-0.0444 0.0465,-0.0687 0.0143,-0.0243 0.0274,-0.05 0.0393,-0.077 0.0119,-0.027 0.0225,-0.0556 0.032,-0.0853 0.0191,-0.0593 0.0334,-0.12342 0.0429,-0.19327 0.01,-0.0699 0.014,-0.14539 0.014,-0.22583 v -3.04787 c 0,-0.0804 -0.004,-0.15497 -0.014,-0.22376 -0.01,-0.0688 -0.0238,-0.13199 -0.0429,-0.18914 -0.01,-0.0286 -0.0201,-0.0555 -0.032,-0.0811 -0.0119,-0.0257 -0.025,-0.0501 -0.0393,-0.0729 -0.0143,-0.0228 -0.0298,-0.0437 -0.0465,-0.0636 -0.0167,-0.0198 -0.0347,-0.0384 -0.0537,-0.0553 -0.0169,-0.0191 -0.0354,-0.0371 -0.0553,-0.0537 -0.0198,-0.0167 -0.0408,-0.0317 -0.0636,-0.046 -0.0228,-0.0143 -0.0472,-0.0279 -0.0729,-0.0398 -0.0257,-0.0119 -0.0526,-0.0225 -0.0811,-0.032 -0.0571,-0.0191 -0.12035,-0.0334 -0.18914,-0.0429 -0.0688,-0.01 -0.14332,-0.014 -0.22376,-0.014 h -4.41936 v -2.6417 h 6.4766 c 0.0804,0 0.15497,-0.004 0.22376,-0.0129 0.0688,-0.008 0.13199,-0.0208 0.18914,-0.0377 0.0286,-0.008 0.0555,-0.0184 0.0811,-0.0289 0.0257,-0.0106 0.0501,-0.0219 0.0729,-0.0346 0.0228,-0.0127 0.0442,-0.0265 0.0641,-0.0413 0.0198,-0.0148 0.0378,-0.0306 0.0548,-0.0475 0.019,-0.0191 0.0371,-0.0398 0.0537,-0.0615 0.0167,-0.0217 0.0322,-0.0444 0.0465,-0.0687 0.0143,-0.0243 0.0274,-0.05 0.0393,-0.077 0.0119,-0.027 0.0225,-0.0556 0.032,-0.0853 0.019,-0.0593 0.0334,-0.12342 0.0429,-0.19327 0.01,-0.0699 0.0145,-0.1454 0.0145,-0.22583 v -3.02255 c 0,-0.0804 -0.005,-0.15497 -0.0145,-0.22376 -0.01,-0.0688 -0.0238,-0.13147 -0.0429,-0.18862 -0.01,-0.0286 -0.0201,-0.056 -0.032,-0.0816 -0.0119,-0.0257 -0.025,-0.0496 -0.0393,-0.0724 -0.0143,-0.0228 -0.0298,-0.0442 -0.0465,-0.0641 -0.0167,-0.0198 -0.0347,-0.0384 -0.0537,-0.0553 -0.0169,-0.019 -0.0349,-0.0366 -0.0548,-0.0532 -0.0198,-0.0167 -0.0413,-0.0322 -0.0641,-0.0465 -0.0228,-0.0143 -0.0472,-0.0274 -0.0729,-0.0393 -0.0257,-0.0119 -0.0526,-0.023 -0.0811,-0.0326 -0.0572,-0.019 -0.12035,-0.0334 -0.18914,-0.0429 -0.0688,-0.01 -0.14332,-0.0139 -0.22376,-0.0139 z m 1.85415,2.28616 h 8.10235 v 0.25374 h -7.84861 v 7.26467 h 5.79137 v 0.25373 h -5.79137 v 5.94382 h -0.25374 z" />
        </g>
      </g>
      <g
         id="g28931"
         transform="translate(-73.089843,-11.081571)">
        <g
           id="g19378"
           transform="translate(-51.97076,64.25971)">
          <path
             id="path13547"
             style="fill:#bdff00;fill-opacity:1;stroke:none;stroke-width:3.69835;stroke-linejoin:round;stroke-miterlimit:4;stroke-dasharray:none;stroke-opacity:1;paint-order:stroke markers fill"
             d="m 206.31681,94.837307 v 5.130955 h -5.13044 v 0.253728 h 5.13044 v 5.13095 h 0.25424 v -5.13095 h 5.13096 v -0.253728 h -5.13096 v -5.130955 z" />
          <path
             id="path13558"
             style="fill:#191970;fill-opacity:1;stroke:none;stroke-width:0.25885;stroke-miterlimit:4;stroke-dasharray:none;stroke-opacity:1;paint-order:stroke fill markers"
             d="m 204.86918,92.550899 c -0.0402,0 -0.0792,0.001 -0.11679,0.004 -0.0376,0.002 -0.0741,0.006 -0.10904,0.0109 -0.0349,0.005 -0.0685,0.0104 -0.10077,0.0176 -0.0323,0.007 -0.0629,0.0158 -0.0925,0.0253 -0.0296,0.009 -0.0583,0.0201 -0.0853,0.032 -0.027,0.0119 -0.0527,0.025 -0.077,0.0393 -0.0243,0.0143 -0.047,0.0298 -0.0687,0.0465 -0.0217,0.0167 -0.0425,0.0347 -0.0615,0.0537 -0.0169,0.0169 -0.0327,0.0349 -0.0475,0.0548 -0.0148,0.0198 -0.0286,0.0413 -0.0413,0.0641 -0.0127,0.0228 -0.024,0.0472 -0.0346,0.0729 -0.0106,0.0257 -0.02,0.0526 -0.0284,0.0811 -0.008,0.0286 -0.0159,0.0584 -0.0222,0.0899 -0.006,0.0315 -0.0118,0.0648 -0.016,0.0992 -0.004,0.0344 -0.008,0.0702 -0.01,0.10749 -0.002,0.0373 -0.003,0.0761 -0.003,0.11627 v 4.266922 h -4.14031 c -0.0402,0 -0.0787,10e-4 -0.11627,0.004 -0.0376,0.002 -0.0741,0.006 -0.10904,0.0109 -0.0349,0.005 -0.0685,0.0104 -0.10077,0.0176 -0.0323,0.007 -0.0634,0.0158 -0.093,0.0253 -0.0296,0.009 -0.0578,0.0201 -0.0848,0.032 -0.027,0.0119 -0.0526,0.025 -0.077,0.0393 -0.0243,0.0143 -0.0476,0.0298 -0.0693,0.0465 -0.0217,0.0167 -0.0419,0.0347 -0.061,0.0537 -0.0169,0.0169 -0.0327,0.0349 -0.0475,0.0548 -0.0148,0.0198 -0.0286,0.0413 -0.0413,0.0641 -0.0127,0.0228 -0.024,0.0472 -0.0346,0.0729 -0.0106,0.0257 -0.0205,0.0526 -0.0289,0.0811 -0.008,0.0286 -0.0159,0.0584 -0.0222,0.0899 -0.006,0.0315 -0.0113,0.0648 -0.0155,0.0992 -0.004,0.0344 -0.008,0.0702 -0.01,0.10749 -0.002,0.0373 -0.003,0.076 -0.003,0.11627 v 2.895439 c 0,0.0402 9.9e-4,0.0792 0.003,0.11679 0.002,0.0376 0.006,0.0736 0.01,0.10852 0.004,0.0349 0.009,0.0685 0.0155,0.10076 0.006,0.0323 0.0137,0.0634 0.0222,0.093 0.008,0.0296 0.0183,0.0578 0.0289,0.0847 0.0106,0.027 0.0219,0.0527 0.0346,0.077 0.0127,0.0243 0.0265,0.0476 0.0413,0.0692 0.0148,0.0217 0.0306,0.0419 0.0475,0.061 0.0191,0.0169 0.0393,0.0327 0.061,0.0476 0.0217,0.0148 0.0449,0.0286 0.0693,0.0413 0.0243,0.0127 0.05,0.0245 0.077,0.0351 0.027,0.0106 0.0551,0.0199 0.0848,0.0284 0.0296,0.008 0.0607,0.0159 0.093,0.0222 0.0323,0.006 0.0658,0.0118 0.10077,0.016 0.0349,0.004 0.0715,0.007 0.10904,0.009 0.0376,0.002 0.076,0.004 0.11627,0.004 h 4.14031 v 4.26692 c 0,0.0402 9.9e-4,0.0792 0.003,0.11679 0.002,0.0376 0.006,0.0736 0.01,0.10852 0.004,0.0349 0.01,0.0685 0.016,0.10077 0.006,0.0323 0.0138,0.0634 0.0222,0.093 0.008,0.0296 0.0178,0.0578 0.0284,0.0847 0.0106,0.027 0.0219,0.0526 0.0346,0.077 0.0127,0.0243 0.0265,0.0476 0.0413,0.0692 0.0148,0.0217 0.0306,0.0419 0.0475,0.061 0.019,0.0169 0.0398,0.0327 0.0615,0.0475 0.0217,0.0148 0.0444,0.0286 0.0687,0.0413 0.0243,0.0127 0.05,0.0246 0.077,0.0351 0.027,0.0106 0.0556,0.02 0.0853,0.0284 0.0296,0.008 0.0602,0.0159 0.0925,0.0222 0.0323,0.006 0.0659,0.0118 0.10077,0.016 0.0349,0.004 0.0715,0.007 0.10904,0.009 0.0376,0.002 0.0766,0.004 0.11679,0.004 h 3.14968 c 0.0402,0 0.079,-0.002 0.11627,-0.004 0.0373,-0.002 0.0731,-0.005 0.10748,-0.009 0.0344,-0.004 0.0672,-0.01 0.0987,-0.016 0.0315,-0.006 0.0613,-0.0138 0.0899,-0.0222 0.0286,-0.008 0.056,-0.0178 0.0816,-0.0284 0.0257,-0.0106 0.0496,-0.0224 0.0724,-0.0351 0.0228,-0.0127 0.0442,-0.0265 0.0641,-0.0413 0.0198,-0.0148 0.0384,-0.0306 0.0553,-0.0475 0.019,-0.019 0.0366,-0.0393 0.0532,-0.061 0.0167,-0.0217 0.0322,-0.0449 0.0465,-0.0692 0.0143,-0.0244 0.0274,-0.05 0.0393,-0.077 0.0119,-0.027 0.0225,-0.0551 0.032,-0.0847 0.01,-0.0296 0.0182,-0.0607 0.0253,-0.093 0.007,-0.0323 0.0128,-0.0658 0.0176,-0.10077 0.005,-0.0349 0.008,-0.0709 0.0109,-0.10852 0.002,-0.0376 0.004,-0.0766 0.004,-0.11679 v -4.26692 h 4.14032 c 0.0402,0 0.079,-10e-4 0.11627,-0.004 0.0373,-0.002 0.0731,-0.005 0.10749,-0.009 0.0344,-0.004 0.0672,-0.01 0.0987,-0.016 0.0315,-0.006 0.0619,-0.0138 0.0904,-0.0222 0.0286,-0.008 0.0555,-0.0178 0.0811,-0.0284 0.0257,-0.0106 0.0501,-0.0224 0.0729,-0.0351 0.0228,-0.0127 0.0437,-0.0265 0.0636,-0.0413 0.0198,-0.0148 0.0384,-0.0306 0.0553,-0.0476 0.019,-0.019 0.0371,-0.0393 0.0537,-0.061 0.0167,-0.0217 0.0317,-0.0449 0.046,-0.0692 0.0143,-0.0243 0.0274,-0.05 0.0393,-0.077 0.0119,-0.027 0.023,-0.0551 0.0326,-0.0847 0.01,-0.0296 0.0177,-0.0607 0.0248,-0.093 0.007,-0.0323 0.0133,-0.0658 0.0181,-0.10076 0.005,-0.0349 0.008,-0.0709 0.0103,-0.10852 0.002,-0.0376 0.004,-0.0766 0.004,-0.11679 v -2.895439 c 0,-0.0402 -0.001,-0.079 -0.004,-0.11627 -0.002,-0.0373 -0.006,-0.0731 -0.0103,-0.10749 -0.005,-0.0344 -0.0109,-0.0677 -0.0181,-0.0992 -0.007,-0.0315 -0.0153,-0.0613 -0.0248,-0.0899 -0.01,-0.0286 -0.0207,-0.0555 -0.0326,-0.0811 -0.0119,-0.0257 -0.025,-0.0501 -0.0393,-0.0729 -0.0143,-0.0228 -0.0293,-0.0442 -0.046,-0.0641 -0.0167,-0.0198 -0.0347,-0.0378 -0.0537,-0.0548 -0.0169,-0.0191 -0.0354,-0.0371 -0.0553,-0.0537 -0.0198,-0.0167 -0.0408,-0.0322 -0.0636,-0.0465 -0.0228,-0.0143 -0.0472,-0.0274 -0.0729,-0.0393 -0.0257,-0.0119 -0.0525,-0.0225 -0.0811,-0.032 -0.0286,-0.01 -0.059,-0.0182 -0.0904,-0.0253 -0.0315,-0.007 -0.0643,-0.0128 -0.0987,-0.0176 -0.0344,-0.005 -0.0702,-0.009 -0.10749,-0.0109 -0.0373,-0.002 -0.0761,-0.004 -0.11627,-0.004 h -4.14032 v -4.266922 c 0,-0.0402 -0.001,-0.079 -0.004,-0.11627 -0.002,-0.0373 -0.006,-0.0731 -0.0109,-0.10749 -0.005,-0.0344 -0.0104,-0.0677 -0.0176,-0.0992 -0.007,-0.0315 -0.0158,-0.0613 -0.0253,-0.0899 -0.01,-0.0286 -0.0201,-0.0555 -0.032,-0.0811 -0.0119,-0.0257 -0.025,-0.0501 -0.0393,-0.0729 -0.0143,-0.0228 -0.0298,-0.0442 -0.0465,-0.0641 -0.0167,-0.0198 -0.0342,-0.0378 -0.0532,-0.0548 -0.0169,-0.0191 -0.0354,-0.0371 -0.0553,-0.0537 -0.0198,-0.0167 -0.0413,-0.0322 -0.0641,-0.0465 -0.0228,-0.0143 -0.0467,-0.0274 -0.0724,-0.0393 -0.0257,-0.0119 -0.0531,-0.0225 -0.0816,-0.032 -0.0286,-0.01 -0.0584,-0.0182 -0.0899,-0.0253 -0.0315,-0.007 -0.0643,-0.0128 -0.0987,-0.0176 -0.0344,-0.005 -0.0702,-0.009 -0.10748,-0.0109 -0.0373,-0.002 -0.0761,-0.004 -0.11627,-0.004 z m 1.44745,2.286171 h 0.25425 v 5.13096 h 5.13096 v 0.25373 h -5.13096 v 5.13095 h -0.25425 v -5.13095 h -5.13043 v -0.25373 h 5.13043 z" />
        </g>
        <g
           id="g28923">
          <path
             id="path26760"
             style="fill:#191970;fill-opacity:1;stroke:#191970;stroke-width:1.05833;stroke-linecap:round;stroke-miterlimit:4;stroke-dasharray:none;stroke-opacity:1;paint-order:markers stroke fill"
             d="m 152.89843,156.55677 c -0.0466,0 -0.0915,0.001 -0.13488,0.005 -0.0434,0.003 -0.0854,0.008 -0.12557,0.0145 -0.0402,0.006 -0.0787,0.0142 -0.11576,0.0238 -0.037,0.01 -0.0726,0.0204 -0.10645,0.0331 -0.0339,0.008 -0.0665,0.0184 -0.0971,0.0289 -0.0307,0.0106 -0.0598,0.0219 -0.0873,0.0346 -0.0275,0.0127 -0.0532,0.0265 -0.0775,0.0413 -0.0243,0.0148 -0.0471,0.0306 -0.0682,0.0475 l -3.30212,2.76882 -0.0253,0.0253 c -0.0127,0.0106 -0.0248,0.0214 -0.0367,0.0331 -0.0119,0.0116 -0.0235,0.024 -0.0346,0.0367 -0.0111,0.0127 -0.0222,0.026 -0.0326,0.0398 -0.0103,0.0138 -0.0199,0.0281 -0.0295,0.0429 -0.01,0.0148 -0.0187,0.0301 -0.0274,0.046 -0.009,0.0159 -0.0169,0.0322 -0.0248,0.0491 -0.0159,0.0339 -0.0302,0.0699 -0.0429,0.10801 -0.0127,0.0381 -0.0241,0.0781 -0.0336,0.1204 -0.01,0.0423 -0.0174,0.0868 -0.0238,0.13333 -0.006,0.0466 -0.0113,0.0954 -0.0145,0.14624 -0.003,0.0508 -0.005,0.10362 -0.005,0.15865 v 1.24488 h -0.60978 c -0.0423,0 -0.0838,0.001 -0.12506,0.005 -0.0413,0.003 -0.0822,0.008 -0.12247,0.0145 -0.0402,0.006 -0.0797,0.0142 -0.11885,0.0238 -0.0392,0.01 -0.0777,0.0204 -0.11576,0.0331 -0.0339,0.008 -0.0665,0.0183 -0.0971,0.0289 -0.0307,0.0106 -0.0598,0.0219 -0.0873,0.0346 -0.0275,0.0127 -0.0532,0.0265 -0.0775,0.0413 -0.0243,0.0148 -0.047,0.0306 -0.0682,0.0476 l -3.27681,2.76882 c -0.0296,0.0254 -0.0578,0.052 -0.0842,0.0806 -0.0265,0.0286 -0.0511,0.0587 -0.0744,0.0904 -0.0233,0.0318 -0.045,0.0653 -0.0651,0.10025 -0.0201,0.0349 -0.0389,0.0714 -0.0558,0.10955 -0.0127,0.0381 -0.0235,0.0781 -0.0331,0.12041 -0.01,0.0423 -0.0174,0.0868 -0.0238,0.13332 -0.006,0.0466 -0.0113,0.0954 -0.0145,0.14625 -0.003,0.0508 -0.005,0.10361 -0.005,0.15864 v 2.89595 c 0,0.0529 0.001,0.10375 0.004,0.15296 0.003,0.0492 0.008,0.0966 0.0134,0.14212 0.006,0.0455 0.013,0.0889 0.0217,0.13074 0.009,0.0418 0.0189,0.0818 0.0305,0.11988 0.0117,0.0381 0.0247,0.0747 0.0393,0.10904 0.0146,0.0344 0.0306,0.067 0.0481,0.0977 0.0175,0.0307 0.0365,0.0593 0.0568,0.0863 0.0204,0.027 0.0423,0.0522 0.0656,0.0754 0.0233,0.0212 0.0482,0.0409 0.0749,0.0594 0.0267,0.0185 0.0551,0.0358 0.0853,0.0517 0.0302,0.0159 0.062,0.0307 0.0956,0.0439 0.0336,0.0132 0.0689,0.0251 0.10593,0.0357 0.037,0.0106 0.0758,0.02 0.11628,0.0279 0.0405,0.008 0.0827,0.0143 0.1266,0.0196 0.0439,0.005 0.0896,0.009 0.13695,0.0119 0.0474,0.003 0.0965,0.004 0.14727,0.004 h 3.88607 v 4.01319 c 0,0.0508 0.001,0.0999 0.004,0.14728 0.003,0.0474 0.007,0.093 0.0119,0.13694 0.005,0.0439 0.0117,0.0861 0.0196,0.12661 0.008,0.0405 0.0173,0.0792 0.0279,0.11627 0.0106,0.037 0.0224,0.0723 0.0357,0.10594 0.0132,0.0336 0.0281,0.0654 0.0439,0.0956 0.0159,0.0302 0.0326,0.0585 0.0512,0.0853 0.0185,0.0267 0.0388,0.0516 0.0599,0.0749 0.0233,0.0233 0.0485,0.0453 0.0754,0.0656 0.027,0.0204 0.0556,0.0394 0.0863,0.0568 0.0307,0.0175 0.0633,0.033 0.0977,0.0476 0.0344,0.0146 0.0704,0.0276 0.10853,0.0393 0.0381,0.0116 0.0781,0.0223 0.11989,0.031 0.0418,0.009 0.0857,0.0159 0.13125,0.0217 0.0455,0.006 0.0929,0.01 0.14211,0.0129 0.0492,0.003 0.10005,0.005 0.15297,0.005 h 3.14967 c 0.0423,0 0.0838,-0.002 0.12403,-0.005 0.0402,-0.003 0.0792,-0.008 0.1173,-0.014 0.0381,-0.006 0.0751,-0.0142 0.11111,-0.0238 0.036,-0.01 0.071,-0.0209 0.1049,-0.0336 0.0339,-0.008 0.0664,-0.0178 0.0982,-0.0284 0.0318,-0.0106 0.0624,-0.0224 0.092,-0.0351 0.0296,-0.0127 0.0583,-0.0265 0.0858,-0.0413 0.0275,-0.0148 0.0542,-0.0306 0.0796,-0.0475 l 3.27628,-2.76831 c 0.0148,-0.0127 0.0291,-0.0258 0.0429,-0.0393 0.0138,-0.0135 0.0271,-0.0276 0.0398,-0.0419 0.0127,-0.0143 0.025,-0.0289 0.0367,-0.0439 0.0116,-0.0151 0.0225,-0.0306 0.0331,-0.0465 0.0106,-0.0159 0.021,-0.0324 0.0305,-0.0491 0.01,-0.0167 0.0184,-0.0337 0.0269,-0.0512 0.008,-0.0175 0.0164,-0.035 0.0238,-0.0532 0.007,-0.0182 0.0143,-0.0373 0.0207,-0.0563 0.008,-0.019 0.0164,-0.0383 0.0238,-0.0584 0.007,-0.0201 0.0143,-0.0408 0.0207,-0.062 0.006,-0.0212 0.0123,-0.0429 0.0176,-0.0651 0.005,-0.0222 0.01,-0.0449 0.0139,-0.0682 0.004,-0.0233 0.008,-0.047 0.0114,-0.0713 0.003,-0.0243 0.006,-0.0495 0.008,-0.0749 0.004,-0.0508 0.007,-0.10361 0.007,-0.15865 v -1.24436 h 0.60927 c 0.0423,0 0.0838,-0.001 0.12402,-0.004 0.0402,-0.002 0.0792,-0.005 0.11731,-0.009 0.0381,-0.004 0.0751,-0.01 0.1111,-0.016 0.036,-0.006 0.071,-0.0138 0.1049,-0.0222 0.0339,-0.0127 0.0664,-0.0255 0.0982,-0.0393 0.0317,-0.0138 0.0629,-0.0281 0.0925,-0.0429 0.0296,-0.0148 0.0577,-0.0301 0.0853,-0.046 0.0275,-0.0159 0.0542,-0.0327 0.0796,-0.0496 l 3.2768,-2.76831 c 0.0148,-0.0127 0.0291,-0.0258 0.0429,-0.0393 0.0138,-0.0135 0.0266,-0.0276 0.0393,-0.0419 0.0127,-0.0143 0.025,-0.0288 0.0367,-0.0439 0.0116,-0.0151 0.023,-0.0306 0.0336,-0.0465 0.0106,-0.0159 0.0205,-0.0324 0.03,-0.0491 0.01,-0.0167 0.0184,-0.0337 0.0269,-0.0512 0.008,-0.0175 0.0164,-0.035 0.0238,-0.0532 0.007,-0.0183 0.0143,-0.0373 0.0207,-0.0563 0.008,-0.019 0.0164,-0.0383 0.0238,-0.0584 0.007,-0.0201 0.0143,-0.0408 0.0207,-0.062 0.006,-0.0212 0.0123,-0.0429 0.0176,-0.0651 0.005,-0.0222 0.0102,-0.0449 0.0145,-0.0682 0.004,-0.0233 0.008,-0.047 0.0108,-0.0713 0.003,-0.0243 0.006,-0.0495 0.008,-0.0749 0.004,-0.0508 0.006,-0.10362 0.006,-0.15865 v -2.89543 c 0,-0.0529 -0.002,-0.10401 -0.005,-0.15296 -0.003,-0.049 -0.007,-0.0961 -0.0129,-0.14108 -0.006,-0.045 -0.013,-0.0877 -0.0217,-0.12868 -0.009,-0.041 -0.0188,-0.0803 -0.0305,-0.1173 -0.0116,-0.037 -0.0247,-0.0718 -0.0393,-0.1049 -0.0146,-0.0331 -0.0306,-0.0644 -0.0481,-0.0935 -0.009,-0.0145 -0.0179,-0.0283 -0.0274,-0.0419 -0.009,-0.0136 -0.0193,-0.0267 -0.0295,-0.0393 -0.0102,-0.0126 -0.0206,-0.0246 -0.0315,-0.0362 -0.0109,-0.0116 -0.0225,-0.023 -0.0341,-0.0336 -0.0233,-0.0233 -0.0482,-0.0447 -0.0749,-0.0651 -0.0267,-0.0204 -0.0551,-0.0394 -0.0853,-0.0568 -0.0302,-0.0175 -0.062,-0.0335 -0.0956,-0.0481 -0.0336,-0.0145 -0.0689,-0.0276 -0.10594,-0.0393 -0.037,-0.0116 -0.0758,-0.0218 -0.11627,-0.0305 -0.0405,-0.009 -0.0827,-0.0159 -0.12661,-0.0217 -0.0439,-0.006 -0.0896,-0.0105 -0.13694,-0.0134 -0.0474,-0.003 -0.0965,-0.004 -0.14728,-0.004 h -3.88607 v -4.01319 c 0,-0.0508 -0.002,-0.0999 -0.005,-0.14727 -0.003,-0.0474 -0.007,-0.093 -0.0129,-0.13695 -0.006,-0.0439 -0.013,-0.0861 -0.0217,-0.12661 -0.009,-0.0405 -0.0194,-0.0792 -0.031,-0.11627 -0.0116,-0.037 -0.0247,-0.0723 -0.0393,-0.10593 -0.0146,-0.0336 -0.0306,-0.0654 -0.0481,-0.0956 -0.0175,-0.0302 -0.036,-0.0585 -0.0563,-0.0853 -0.0204,-0.0267 -0.0423,-0.0522 -0.0656,-0.0755 -0.0233,-0.0233 -0.0482,-0.0447 -0.0749,-0.0651 -0.0267,-0.0204 -0.0551,-0.0394 -0.0853,-0.0568 -0.0302,-0.0175 -0.062,-0.0335 -0.0956,-0.0481 -0.0336,-0.0146 -0.0694,-0.0276 -0.10645,-0.0393 -0.037,-0.0116 -0.0758,-0.0218 -0.11627,-0.0305 -0.0405,-0.009 -0.0827,-0.0159 -0.12661,-0.0217 -0.0439,-0.006 -0.0896,-0.0105 -0.13694,-0.0134 -0.0474,-0.003 -0.096,-0.004 -0.14676,-0.004 z m 0,0.25373 h 3.14968 c 0.0402,0 0.079,0.001 0.11627,0.004 0.0373,0.002 0.0731,0.006 0.10749,0.0108 0.0344,0.005 0.0672,0.0104 0.0987,0.0176 0.0315,0.007 0.0613,0.0158 0.0899,0.0253 0.0286,0.01 0.056,0.0201 0.0817,0.032 0.0257,0.0119 0.0496,0.025 0.0724,0.0393 0.0228,0.0143 0.0442,0.0298 0.0641,0.0465 0.0198,0.0167 0.0384,0.0347 0.0553,0.0537 0.0191,0.0169 0.0366,0.0349 0.0532,0.0548 0.0167,0.0198 0.0322,0.0413 0.0465,0.0641 0.0143,0.0228 0.0274,0.0472 0.0393,0.0729 0.0119,0.0257 0.0225,0.0525 0.032,0.0811 0.01,0.0286 0.0182,0.0584 0.0253,0.0899 0.007,0.0315 0.0128,0.0648 0.0176,0.0992 0.005,0.0344 0.008,0.0702 0.0109,0.10749 0.002,0.0373 0.004,0.0761 0.004,0.11627 v 4.26693 h 4.14032 c 0.0402,0 0.079,0.001 0.11627,0.004 0.0373,0.002 0.0731,0.006 0.10749,0.0109 0.0344,0.005 0.0672,0.0104 0.0987,0.0176 0.0315,0.007 0.0619,0.0158 0.0904,0.0253 0.0286,0.01 0.0555,0.0201 0.0811,0.032 0.0257,0.0119 0.0501,0.025 0.0729,0.0393 0.0228,0.0143 0.0437,0.0298 0.0636,0.0465 0.0198,0.0167 0.0384,0.0347 0.0553,0.0537 0.019,0.0169 0.0371,0.0349 0.0537,0.0548 0.0167,0.0198 0.0317,0.0413 0.046,0.0641 0.0143,0.0228 0.0274,0.0472 0.0393,0.0729 0.0119,0.0257 0.023,0.0526 0.0326,0.0811 0.01,0.0286 0.0177,0.0584 0.0248,0.0899 0.007,0.0315 0.0133,0.0648 0.0181,0.0992 0.005,0.0344 0.008,0.0702 0.0103,0.10749 0.002,0.0373 0.004,0.0761 0.004,0.11627 v 2.89543 c 0,0.0402 -0.001,0.0792 -0.004,0.11679 -0.002,0.0376 -0.006,0.0736 -0.0103,0.10852 -0.005,0.0349 -0.0109,0.0685 -0.0181,0.10077 -0.007,0.0323 -0.0153,0.0634 -0.0248,0.093 -0.01,0.0296 -0.0206,0.0578 -0.0326,0.0848 -0.0119,0.027 -0.025,0.0526 -0.0393,0.077 -0.0143,0.0243 -0.0293,0.0476 -0.046,0.0693 -0.0167,0.0217 -0.0347,0.0419 -0.0537,0.061 -0.0169,0.0169 -0.0355,0.0327 -0.0553,0.0475 -0.0198,0.0148 -0.0408,0.0286 -0.0636,0.0413 -0.0227,0.0127 -0.0472,0.0246 -0.0729,0.0351 -0.0257,0.0106 -0.0526,0.02 -0.0811,0.0284 -0.0286,0.008 -0.0589,0.0159 -0.0904,0.0222 -0.0315,0.006 -0.0643,0.0118 -0.0987,0.016 -0.0344,0.004 -0.0702,0.007 -0.10749,0.009 -0.0373,0.002 -0.0761,0.004 -0.11627,0.004 h -4.14032 v 4.26692 c 0,0.0402 -0.001,0.0792 -0.004,0.11679 -0.002,0.0376 -0.006,0.0736 -0.0109,0.10852 -0.005,0.0349 -0.0104,0.0685 -0.0176,0.10077 -0.007,0.0323 -0.0158,0.0634 -0.0253,0.093 -0.01,0.0296 -0.0201,0.0578 -0.032,0.0848 -0.0119,0.027 -0.025,0.0527 -0.0393,0.077 -0.0143,0.0243 -0.0298,0.0476 -0.0465,0.0693 -0.0167,0.0217 -0.0342,0.0419 -0.0532,0.061 -0.0169,0.0169 -0.0354,0.0327 -0.0553,0.0475 -0.0198,0.0148 -0.0413,0.0286 -0.0641,0.0413 -0.0228,0.0127 -0.0467,0.0246 -0.0724,0.0351 -0.0257,0.0106 -0.0531,0.02 -0.0817,0.0284 -0.0286,0.008 -0.0584,0.0159 -0.0899,0.0222 -0.0315,0.006 -0.0643,0.0118 -0.0987,0.016 -0.0344,0.004 -0.0702,0.007 -0.10749,0.009 -0.0373,0.002 -0.0761,0.004 -0.11627,0.004 h -3.14968 c -0.0402,0 -0.0792,-0.001 -0.11679,-0.004 -0.0376,-0.002 -0.0741,-0.005 -0.10904,-0.009 -0.0349,-0.004 -0.0685,-0.01 -0.10077,-0.016 -0.0323,-0.006 -0.0629,-0.0137 -0.0925,-0.0222 -0.0296,-0.008 -0.0583,-0.0178 -0.0853,-0.0284 -0.027,-0.0106 -0.0527,-0.0224 -0.077,-0.0351 -0.0243,-0.0127 -0.047,-0.0265 -0.0687,-0.0413 -0.0217,-0.0148 -0.0424,-0.0306 -0.0615,-0.0475 -0.0169,-0.0191 -0.0327,-0.0393 -0.0476,-0.061 -0.0148,-0.0217 -0.0286,-0.0449 -0.0413,-0.0693 -0.0127,-0.0243 -0.024,-0.05 -0.0346,-0.077 -0.0106,-0.027 -0.02,-0.0551 -0.0284,-0.0848 -0.008,-0.0296 -0.0159,-0.0607 -0.0222,-0.093 -0.006,-0.0323 -0.0118,-0.0658 -0.016,-0.10077 -0.004,-0.0349 -0.008,-0.071 -0.01,-0.10852 -0.002,-0.0376 -0.003,-0.0766 -0.003,-0.11679 v -4.26692 h -4.14032 c -0.0402,0 -0.0787,-0.001 -0.11627,-0.004 -0.0376,-0.002 -0.0741,-0.005 -0.10904,-0.009 -0.0349,-0.004 -0.0685,-0.01 -0.10077,-0.016 -0.0323,-0.006 -0.0634,-0.0137 -0.093,-0.0222 -0.0296,-0.008 -0.0578,-0.0178 -0.0848,-0.0284 -0.027,-0.0106 -0.0526,-0.0224 -0.077,-0.0351 -0.0243,-0.0127 -0.0476,-0.0265 -0.0692,-0.0413 -0.0217,-0.0148 -0.0419,-0.0306 -0.061,-0.0475 -0.0169,-0.0191 -0.0327,-0.0393 -0.0475,-0.061 -0.0148,-0.0217 -0.0286,-0.0449 -0.0413,-0.0693 -0.0127,-0.0243 -0.024,-0.05 -0.0346,-0.077 -0.0106,-0.027 -0.0205,-0.0551 -0.0289,-0.0848 -0.008,-0.0296 -0.0159,-0.0607 -0.0222,-0.093 -0.006,-0.0323 -0.0113,-0.0658 -0.0155,-0.10077 -0.004,-0.0349 -0.008,-0.071 -0.01,-0.10852 -0.002,-0.0376 -0.003,-0.0766 -0.003,-0.11679 v -2.89543 c 0,-0.0402 9.9e-4,-0.079 0.003,-0.11627 0.002,-0.0373 0.006,-0.0731 0.01,-0.10749 0.004,-0.0344 0.009,-0.0677 0.0155,-0.0992 0.006,-0.0315 0.0138,-0.0613 0.0222,-0.0899 0.008,-0.0286 0.0183,-0.0555 0.0289,-0.0811 0.0106,-0.0257 0.0219,-0.0501 0.0346,-0.0729 0.0127,-0.0228 0.0265,-0.0442 0.0413,-0.0641 0.0148,-0.0199 0.0306,-0.0379 0.0475,-0.0548 0.019,-0.019 0.0393,-0.0371 0.061,-0.0537 0.0217,-0.0167 0.0449,-0.0322 0.0692,-0.0465 0.0243,-0.0143 0.05,-0.0274 0.077,-0.0393 0.027,-0.0119 0.0551,-0.0225 0.0848,-0.032 0.0296,-0.01 0.0607,-0.0182 0.093,-0.0253 0.0323,-0.007 0.0659,-0.0128 0.10077,-0.0176 0.0349,-0.005 0.0715,-0.008 0.10904,-0.0109 0.0376,-0.002 0.0761,-0.004 0.11627,-0.004 h 4.14032 v -4.26693 c 0,-0.0402 9.8e-4,-0.079 0.003,-0.11627 0.002,-0.0373 0.006,-0.0731 0.01,-0.10749 0.004,-0.0344 0.01,-0.0677 0.016,-0.0992 0.006,-0.0315 0.0138,-0.0613 0.0222,-0.0899 0.008,-0.0286 0.0178,-0.0555 0.0284,-0.0811 0.0106,-0.0257 0.0219,-0.0501 0.0346,-0.0729 0.0127,-0.0227 0.0265,-0.0442 0.0413,-0.0641 0.0148,-0.0198 0.0306,-0.0378 0.0476,-0.0548 0.0191,-0.019 0.0398,-0.0371 0.0615,-0.0537 0.0217,-0.0167 0.0444,-0.0322 0.0687,-0.0465 0.0243,-0.0143 0.05,-0.0274 0.077,-0.0393 0.027,-0.0119 0.0556,-0.0225 0.0853,-0.032 0.0296,-0.01 0.0602,-0.0182 0.0925,-0.0253 0.0323,-0.007 0.0659,-0.0128 0.10077,-0.0176 0.0349,-0.005 0.0715,-0.008 0.10904,-0.0108 0.0376,-0.002 0.0766,-0.004 0.11679,-0.004 z" />
          <path
             id="path13556"
             style="fill:#bdff00;fill-opacity:1;stroke:none;stroke-width:1.05833;stroke-miterlimit:4;stroke-dasharray:none;stroke-opacity:1;paint-order:stroke fill markers"
             d="m 152.89843,156.55677 c -0.0466,0 -0.0915,0.001 -0.13488,0.005 -0.0434,0.003 -0.0854,0.008 -0.12557,0.0145 -0.0402,0.006 -0.0787,0.0142 -0.11576,0.0238 -0.037,0.01 -0.0726,0.0204 -0.10645,0.0331 -0.0339,0.008 -0.0665,0.0184 -0.0971,0.0289 -0.0307,0.0106 -0.0598,0.0219 -0.0873,0.0346 -0.0275,0.0127 -0.0532,0.0265 -0.0775,0.0413 -0.0243,0.0148 -0.0471,0.0306 -0.0682,0.0475 l -3.30212,2.76882 -0.0253,0.0253 c -0.0127,0.0106 -0.0248,0.0214 -0.0367,0.0331 -0.0119,0.0116 -0.0235,0.024 -0.0346,0.0367 -0.0111,0.0127 -0.0222,0.026 -0.0326,0.0398 -0.0103,0.0138 -0.0199,0.0281 -0.0295,0.0429 -0.01,0.0148 -0.0187,0.0301 -0.0274,0.046 -0.009,0.0159 -0.0169,0.0322 -0.0248,0.0491 -0.0159,0.0339 -0.0302,0.0699 -0.0429,0.10801 -0.0127,0.0381 -0.0241,0.0781 -0.0336,0.1204 -0.01,0.0423 -0.0174,0.0868 -0.0238,0.13333 -0.006,0.0466 -0.0113,0.0954 -0.0145,0.14624 -0.003,0.0508 -0.005,0.10362 -0.005,0.15865 v 1.24488 h -0.60978 c -0.0423,0 -0.0838,0.001 -0.12506,0.005 -0.0413,0.003 -0.0822,0.008 -0.12247,0.0145 -0.0402,0.006 -0.0797,0.0142 -0.11885,0.0238 -0.0392,0.01 -0.0777,0.0204 -0.11576,0.0331 -0.0339,0.008 -0.0665,0.0183 -0.0971,0.0289 -0.0307,0.0106 -0.0598,0.0219 -0.0873,0.0346 -0.0275,0.0127 -0.0532,0.0265 -0.0775,0.0413 -0.0243,0.0148 -0.047,0.0306 -0.0682,0.0476 l -3.27681,2.76882 c -0.0296,0.0254 -0.0578,0.052 -0.0842,0.0806 -0.0265,0.0286 -0.0511,0.0587 -0.0744,0.0904 -0.0233,0.0318 -0.045,0.0653 -0.0651,0.10025 -0.0201,0.0349 -0.0389,0.0714 -0.0558,0.10955 -0.0127,0.0381 -0.0235,0.0781 -0.0331,0.12041 -0.01,0.0423 -0.0174,0.0868 -0.0238,0.13332 -0.006,0.0466 -0.0113,0.0954 -0.0145,0.14625 -0.003,0.0508 -0.005,0.10361 -0.005,0.15864 v 2.89595 c 0,0.0529 0.001,0.10375 0.004,0.15296 0.003,0.0492 0.008,0.0966 0.0134,0.14212 0.006,0.0455 0.013,0.0889 0.0217,0.13074 0.009,0.0418 0.0189,0.0818 0.0305,0.11988 0.0117,0.0381 0.0247,0.0747 0.0393,0.10904 0.0146,0.0344 0.0306,0.067 0.0481,0.0977 0.0175,0.0307 0.0365,0.0593 0.0568,0.0863 0.0204,0.027 0.0423,0.0522 0.0656,0.0754 0.0233,0.0212 0.0482,0.0409 0.0749,0.0594 0.0267,0.0185 0.0551,0.0358 0.0853,0.0517 0.0302,0.0159 0.062,0.0307 0.0956,0.0439 0.0336,0.0132 0.0689,0.0251 0.10593,0.0357 0.037,0.0106 0.0758,0.02 0.11628,0.0279 0.0405,0.008 0.0827,0.0143 0.1266,0.0196 0.0439,0.005 0.0896,0.009 0.13695,0.0119 0.0474,0.003 0.0965,0.004 0.14727,0.004 h 3.88607 v 4.01319 c 0,0.0508 0.001,0.0999 0.004,0.14728 0.003,0.0474 0.007,0.093 0.0119,0.13694 0.005,0.0439 0.0117,0.0861 0.0196,0.12661 0.008,0.0405 0.0173,0.0792 0.0279,0.11627 0.0106,0.037 0.0224,0.0723 0.0357,0.10594 0.0132,0.0336 0.0281,0.0654 0.0439,0.0956 0.0159,0.0302 0.0326,0.0585 0.0512,0.0853 0.0185,0.0267 0.0388,0.0516 0.0599,0.0749 0.0233,0.0233 0.0485,0.0453 0.0754,0.0656 0.027,0.0204 0.0556,0.0394 0.0863,0.0568 0.0307,0.0175 0.0633,0.033 0.0977,0.0476 0.0344,0.0146 0.0704,0.0276 0.10853,0.0393 0.0381,0.0116 0.0781,0.0223 0.11989,0.031 0.0418,0.009 0.0857,0.0159 0.13125,0.0217 0.0455,0.006 0.0929,0.01 0.14211,0.0129 0.0492,0.003 0.10005,0.005 0.15297,0.005 h 3.14967 c 0.0423,0 0.0838,-0.002 0.12403,-0.005 0.0402,-0.003 0.0792,-0.008 0.1173,-0.014 0.0381,-0.006 0.0751,-0.0142 0.11111,-0.0238 0.036,-0.01 0.071,-0.0209 0.1049,-0.0336 0.0339,-0.008 0.0664,-0.0178 0.0982,-0.0284 0.0318,-0.0106 0.0624,-0.0224 0.092,-0.0351 0.0296,-0.0127 0.0583,-0.0265 0.0858,-0.0413 0.0275,-0.0148 0.0542,-0.0306 0.0796,-0.0475 l 3.27628,-2.76831 c 0.0148,-0.0127 0.0291,-0.0258 0.0429,-0.0393 0.0138,-0.0135 0.0271,-0.0276 0.0398,-0.0419 0.0127,-0.0143 0.025,-0.0289 0.0367,-0.0439 0.0116,-0.0151 0.0225,-0.0306 0.0331,-0.0465 0.0106,-0.0159 0.021,-0.0324 0.0305,-0.0491 0.01,-0.0167 0.0184,-0.0337 0.0269,-0.0512 0.008,-0.0175 0.0164,-0.035 0.0238,-0.0532 0.007,-0.0182 0.0143,-0.0373 0.0207,-0.0563 0.008,-0.019 0.0164,-0.0383 0.0238,-0.0584 0.007,-0.0201 0.0143,-0.0408 0.0207,-0.062 0.006,-0.0212 0.0123,-0.0429 0.0176,-0.0651 0.005,-0.0222 0.01,-0.0449 0.0139,-0.0682 0.004,-0.0233 0.008,-0.047 0.0114,-0.0713 0.003,-0.0243 0.006,-0.0495 0.008,-0.0749 0.004,-0.0508 0.007,-0.10361 0.007,-0.15865 v -1.24436 h 0.60927 c 0.0423,0 0.0838,-0.001 0.12402,-0.004 0.0402,-0.002 0.0792,-0.005 0.11731,-0.009 0.0381,-0.004 0.0751,-0.01 0.1111,-0.016 0.036,-0.006 0.071,-0.0138 0.1049,-0.0222 0.0339,-0.0127 0.0664,-0.0255 0.0982,-0.0393 0.0317,-0.0138 0.0629,-0.0281 0.0925,-0.0429 0.0296,-0.0148 0.0577,-0.0301 0.0853,-0.046 0.0275,-0.0159 0.0542,-0.0327 0.0796,-0.0496 l 3.2768,-2.76831 c 0.0148,-0.0127 0.0291,-0.0258 0.0429,-0.0393 0.0138,-0.0135 0.0266,-0.0276 0.0393,-0.0419 0.0127,-0.0143 0.025,-0.0288 0.0367,-0.0439 0.0116,-0.0151 0.023,-0.0306 0.0336,-0.0465 0.0106,-0.0159 0.0205,-0.0324 0.03,-0.0491 0.01,-0.0167 0.0184,-0.0337 0.0269,-0.0512 0.008,-0.0175 0.0164,-0.035 0.0238,-0.0532 0.007,-0.0183 0.0143,-0.0373 0.0207,-0.0563 0.008,-0.019 0.0164,-0.0383 0.0238,-0.0584 0.007,-0.0201 0.0143,-0.0408 0.0207,-0.062 0.006,-0.0212 0.0123,-0.0429 0.0176,-0.0651 0.005,-0.0222 0.0102,-0.0449 0.0145,-0.0682 0.004,-0.0233 0.008,-0.047 0.0108,-0.0713 0.003,-0.0243 0.006,-0.0495 0.008,-0.0749 0.004,-0.0508 0.006,-0.10362 0.006,-0.15865 v -2.89543 c 0,-0.0529 -0.002,-0.10401 -0.005,-0.15296 -0.003,-0.049 -0.007,-0.0961 -0.0129,-0.14108 -0.006,-0.045 -0.013,-0.0877 -0.0217,-0.12868 -0.009,-0.041 -0.0188,-0.0803 -0.0305,-0.1173 -0.0116,-0.037 -0.0247,-0.0718 -0.0393,-0.1049 -0.0146,-0.0331 -0.0306,-0.0644 -0.0481,-0.0935 -0.009,-0.0145 -0.0179,-0.0283 -0.0274,-0.0419 -0.009,-0.0136 -0.0193,-0.0267 -0.0295,-0.0393 -0.0102,-0.0126 -0.0206,-0.0246 -0.0315,-0.0362 -0.0109,-0.0116 -0.0225,-0.023 -0.0341,-0.0336 -0.0233,-0.0233 -0.0482,-0.0447 -0.0749,-0.0651 -0.0267,-0.0204 -0.0551,-0.0394 -0.0853,-0.0568 -0.0302,-0.0175 -0.062,-0.0335 -0.0956,-0.0481 -0.0336,-0.0145 -0.0689,-0.0276 -0.10594,-0.0393 -0.037,-0.0116 -0.0758,-0.0218 -0.11627,-0.0305 -0.0405,-0.009 -0.0827,-0.0159 -0.12661,-0.0217 -0.0439,-0.006 -0.0896,-0.0105 -0.13694,-0.0134 -0.0474,-0.003 -0.0965,-0.004 -0.14728,-0.004 h -3.88607 v -4.01319 c 0,-0.0508 -0.002,-0.0999 -0.005,-0.14727 -0.003,-0.0474 -0.007,-0.093 -0.0129,-0.13695 -0.006,-0.0439 -0.013,-0.0861 -0.0217,-0.12661 -0.009,-0.0405 -0.0194,-0.0792 -0.031,-0.11627 -0.0116,-0.037 -0.0247,-0.0723 -0.0393,-0.10593 -0.0146,-0.0336 -0.0306,-0.0654 -0.0481,-0.0956 -0.0175,-0.0302 -0.036,-0.0585 -0.0563,-0.0853 -0.0204,-0.0267 -0.0423,-0.0522 -0.0656,-0.0755 -0.0233,-0.0233 -0.0482,-0.0447 -0.0749,-0.0651 -0.0267,-0.0204 -0.0551,-0.0394 -0.0853,-0.0568 -0.0302,-0.0175 -0.062,-0.0335 -0.0956,-0.0481 -0.0336,-0.0146 -0.0694,-0.0276 -0.10645,-0.0393 -0.037,-0.0116 -0.0758,-0.0218 -0.11627,-0.0305 -0.0405,-0.009 -0.0827,-0.0159 -0.12661,-0.0217 -0.0439,-0.006 -0.0896,-0.0105 -0.13694,-0.0134 -0.0474,-0.003 -0.096,-0.004 -0.14676,-0.004 z m 0,0.25373 h 3.14968 c 0.0402,0 0.079,0.001 0.11627,0.004 0.0373,0.002 0.0731,0.006 0.10749,0.0108 0.0344,0.005 0.0672,0.0104 0.0987,0.0176 0.0315,0.007 0.0613,0.0158 0.0899,0.0253 0.0286,0.01 0.056,0.0201 0.0817,0.032 0.0257,0.0119 0.0496,0.025 0.0724,0.0393 0.0228,0.0143 0.0442,0.0298 0.0641,0.0465 0.0198,0.0167 0.0384,0.0347 0.0553,0.0537 0.0191,0.0169 0.0366,0.0349 0.0532,0.0548 0.0167,0.0198 0.0322,0.0413 0.0465,0.0641 0.0143,0.0228 0.0274,0.0472 0.0393,0.0729 0.0119,0.0257 0.0225,0.0525 0.032,0.0811 0.01,0.0286 0.0182,0.0584 0.0253,0.0899 0.007,0.0315 0.0128,0.0648 0.0176,0.0992 0.005,0.0344 0.008,0.0702 0.0109,0.10749 0.002,0.0373 0.004,0.0761 0.004,0.11627 v 4.26693 h 4.14032 c 0.0402,0 0.079,0.001 0.11627,0.004 0.0373,0.002 0.0731,0.006 0.10749,0.0109 0.0344,0.005 0.0672,0.0104 0.0987,0.0176 0.0315,0.007 0.0619,0.0158 0.0904,0.0253 0.0286,0.01 0.0555,0.0201 0.0811,0.032 0.0257,0.0119 0.0501,0.025 0.0729,0.0393 0.0228,0.0143 0.0437,0.0298 0.0636,0.0465 0.0198,0.0167 0.0384,0.0347 0.0553,0.0537 0.019,0.0169 0.0371,0.0349 0.0537,0.0548 0.0167,0.0198 0.0317,0.0413 0.046,0.0641 0.0143,0.0228 0.0274,0.0472 0.0393,0.0729 0.0119,0.0257 0.023,0.0526 0.0326,0.0811 0.01,0.0286 0.0177,0.0584 0.0248,0.0899 0.007,0.0315 0.0133,0.0648 0.0181,0.0992 0.005,0.0344 0.008,0.0702 0.0103,0.10749 0.002,0.0373 0.004,0.0761 0.004,0.11627 v 2.89543 c 0,0.0402 -0.001,0.0792 -0.004,0.11679 -0.002,0.0376 -0.006,0.0736 -0.0103,0.10852 -0.005,0.0349 -0.0109,0.0685 -0.0181,0.10077 -0.007,0.0323 -0.0153,0.0634 -0.0248,0.093 -0.01,0.0296 -0.0206,0.0578 -0.0326,0.0848 -0.0119,0.027 -0.025,0.0526 -0.0393,0.077 -0.0143,0.0243 -0.0293,0.0476 -0.046,0.0693 -0.0167,0.0217 -0.0347,0.0419 -0.0537,0.061 -0.0169,0.0169 -0.0355,0.0327 -0.0553,0.0475 -0.0198,0.0148 -0.0408,0.0286 -0.0636,0.0413 -0.0227,0.0127 -0.0472,0.0246 -0.0729,0.0351 -0.0257,0.0106 -0.0526,0.02 -0.0811,0.0284 -0.0286,0.008 -0.0589,0.0159 -0.0904,0.0222 -0.0315,0.006 -0.0643,0.0118 -0.0987,0.016 -0.0344,0.004 -0.0702,0.007 -0.10749,0.009 -0.0373,0.002 -0.0761,0.004 -0.11627,0.004 h -4.14032 v 4.26692 c 0,0.0402 -0.001,0.0792 -0.004,0.11679 -0.002,0.0376 -0.006,0.0736 -0.0109,0.10852 -0.005,0.0349 -0.0104,0.0685 -0.0176,0.10077 -0.007,0.0323 -0.0158,0.0634 -0.0253,0.093 -0.01,0.0296 -0.0201,0.0578 -0.032,0.0848 -0.0119,0.027 -0.025,0.0527 -0.0393,0.077 -0.0143,0.0243 -0.0298,0.0476 -0.0465,0.0693 -0.0167,0.0217 -0.0342,0.0419 -0.0532,0.061 -0.0169,0.0169 -0.0354,0.0327 -0.0553,0.0475 -0.0198,0.0148 -0.0413,0.0286 -0.0641,0.0413 -0.0228,0.0127 -0.0467,0.0246 -0.0724,0.0351 -0.0257,0.0106 -0.0531,0.02 -0.0817,0.0284 -0.0286,0.008 -0.0584,0.0159 -0.0899,0.0222 -0.0315,0.006 -0.0643,0.0118 -0.0987,0.016 -0.0344,0.004 -0.0702,0.007 -0.10749,0.009 -0.0373,0.002 -0.0761,0.004 -0.11627,0.004 h -3.14968 c -0.0402,0 -0.0792,-0.001 -0.11679,-0.004 -0.0376,-0.002 -0.0741,-0.005 -0.10904,-0.009 -0.0349,-0.004 -0.0685,-0.01 -0.10077,-0.016 -0.0323,-0.006 -0.0629,-0.0137 -0.0925,-0.0222 -0.0296,-0.008 -0.0583,-0.0178 -0.0853,-0.0284 -0.027,-0.0106 -0.0527,-0.0224 -0.077,-0.0351 -0.0243,-0.0127 -0.047,-0.0265 -0.0687,-0.0413 -0.0217,-0.0148 -0.0424,-0.0306 -0.0615,-0.0475 -0.0169,-0.0191 -0.0327,-0.0393 -0.0476,-0.061 -0.0148,-0.0217 -0.0286,-0.0449 -0.0413,-0.0693 -0.0127,-0.0243 -0.024,-0.05 -0.0346,-0.077 -0.0106,-0.027 -0.02,-0.0551 -0.0284,-0.0848 -0.008,-0.0296 -0.0159,-0.0607 -0.0222,-0.093 -0.006,-0.0323 -0.0118,-0.0658 -0.016,-0.10077 -0.004,-0.0349 -0.008,-0.071 -0.01,-0.10852 -0.002,-0.0376 -0.003,-0.0766 -0.003,-0.11679 v -4.26692 h -4.14032 c -0.0402,0 -0.0787,-0.001 -0.11627,-0.004 -0.0376,-0.002 -0.0741,-0.005 -0.10904,-0.009 -0.0349,-0.004 -0.0685,-0.01 -0.10077,-0.016 -0.0323,-0.006 -0.0634,-0.0137 -0.093,-0.0222 -0.0296,-0.008 -0.0578,-0.0178 -0.0848,-0.0284 -0.027,-0.0106 -0.0526,-0.0224 -0.077,-0.0351 -0.0243,-0.0127 -0.0476,-0.0265 -0.0692,-0.0413 -0.0217,-0.0148 -0.0419,-0.0306 -0.061,-0.0475 -0.0169,-0.0191 -0.0327,-0.0393 -0.0475,-0.061 -0.0148,-0.0217 -0.0286,-0.0449 -0.0413,-0.0693 -0.0127,-0.0243 -0.024,-0.05 -0.0346,-0.077 -0.0106,-0.027 -0.0205,-0.0551 -0.0289,-0.0848 -0.008,-0.0296 -0.0159,-0.0607 -0.0222,-0.093 -0.006,-0.0323 -0.0113,-0.0658 -0.0155,-0.10077 -0.004,-0.0349 -0.008,-0.071 -0.01,-0.10852 -0.002,-0.0376 -0.003,-0.0766 -0.003,-0.11679 v -2.89543 c 0,-0.0402 9.9e-4,-0.079 0.003,-0.11627 0.002,-0.0373 0.006,-0.0731 0.01,-0.10749 0.004,-0.0344 0.009,-0.0677 0.0155,-0.0992 0.006,-0.0315 0.0138,-0.0613 0.0222,-0.0899 0.008,-0.0286 0.0183,-0.0555 0.0289,-0.0811 0.0106,-0.0257 0.0219,-0.0501 0.0346,-0.0729 0.0127,-0.0228 0.0265,-0.0442 0.0413,-0.0641 0.0148,-0.0199 0.0306,-0.0379 0.0475,-0.0548 0.019,-0.019 0.0393,-0.0371 0.061,-0.0537 0.0217,-0.0167 0.0449,-0.0322 0.0692,-0.0465 0.0243,-0.0143 0.05,-0.0274 0.077,-0.0393 0.027,-0.0119 0.0551,-0.0225 0.0848,-0.032 0.0296,-0.01 0.0607,-0.0182 0.093,-0.0253 0.0323,-0.007 0.0659,-0.0128 0.10077,-0.0176 0.0349,-0.005 0.0715,-0.008 0.10904,-0.0109 0.0376,-0.002 0.0761,-0.004 0.11627,-0.004 h 4.14032 v -4.26693 c 0,-0.0402 9.8e-4,-0.079 0.003,-0.11627 0.002,-0.0373 0.006,-0.0731 0.01,-0.10749 0.004,-0.0344 0.01,-0.0677 0.016,-0.0992 0.006,-0.0315 0.0138,-0.0613 0.0222,-0.0899 0.008,-0.0286 0.0178,-0.0555 0.0284,-0.0811 0.0106,-0.0257 0.0219,-0.0501 0.0346,-0.0729 0.0127,-0.0227 0.0265,-0.0442 0.0413,-0.0641 0.0148,-0.0198 0.0306,-0.0378 0.0476,-0.0548 0.0191,-0.019 0.0398,-0.0371 0.0615,-0.0537 0.0217,-0.0167 0.0444,-0.0322 0.0687,-0.0465 0.0243,-0.0143 0.05,-0.0274 0.077,-0.0393 0.027,-0.0119 0.0556,-0.0225 0.0853,-0.032 0.0296,-0.01 0.0602,-0.0182 0.0925,-0.0253 0.0323,-0.007 0.0659,-0.0128 0.10077,-0.0176 0.0349,-0.005 0.0715,-0.008 0.10904,-0.0108 0.0376,-0.002 0.0766,-0.004 0.11679,-0.004 z" />
        </g>
      </g>
    </g>
  </g>
</svg>
