<svg width="24" height="24" viewBox="0 0 24 24" fill="none" xmlns="http://www.w3.org/2000/svg">
<path d="M15.4502 16.52L12.4402 13.51C12.3302 13.4 12.2002 13.38 12.1302 13.38C12.0602 13.38 11.9302 13.4 11.8202 13.51L8.80016 16.53C8.46016 16.87 7.93016 17.42 6.16016 17.42L9.87016 21.12C10.4327 21.6818 11.1952 21.9973 11.9902 21.9973C12.7852 21.9973 13.5477 21.6818 14.1102 21.12L17.8302 17.41C16.9202 17.41 16.1602 17.23 15.4502 16.52ZM8.80016 7.46998L11.8202 10.49C11.9002 10.57 12.0202 10.62 12.1302 10.62C12.2402 10.62 12.3602 10.57 12.4402 10.49L15.4302 7.49998C16.1402 6.75998 16.9502 6.58998 17.8602 6.58998L14.1402 2.87998C13.5777 2.31818 12.8152 2.00262 12.0202 2.00262C11.2252 2.00262 10.4627 2.31818 9.90016 2.87998L6.19016 6.57998C7.95016 6.57998 8.49016 7.15998 8.80016 7.46998Z" fill="#232F95"/>
<path d="M21.1103 9.85001L18.8603 7.59001H17.6003C17.0603 7.59001 16.5203 7.81001 16.1503 8.20001L13.1503 11.2C12.8703 11.48 12.5003 11.62 12.1303 11.62C11.7493 11.6146 11.3846 11.4645 11.1103 11.2L8.09029 8.17001C7.71029 7.79001 7.19029 7.57001 6.64029 7.57001H5.17029L2.88029 9.87001C2.31849 10.4325 2.00293 11.195 2.00293 11.99C2.00293 12.785 2.31849 13.5475 2.88029 14.11L5.17029 16.41H6.65029C7.19029 16.41 7.71029 16.19 8.10029 15.81L11.1203 12.79C11.4003 12.51 11.7703 12.37 12.1403 12.37C12.5103 12.37 12.8803 12.51 13.1603 12.79L16.1703 15.8C16.5503 16.18 17.0703 16.4 17.6203 16.4H18.8803L21.1303 14.14C21.6945 13.5674 22.009 12.7947 22.0053 11.9909C22.0015 11.187 21.6798 10.4174 21.1103 9.85001Z" fill="#232F95"/>
</svg>
